<?xml version="1.0" standalone="no"?>
<!DOCTYPE svg PUBLIC "-//W3C//DTD SVG 20010904//EN"
 "http://www.w3.org/TR/2001/REC-SVG-20010904/DTD/svg10.dtd">
<svg version="1.0" xmlns="http://www.w3.org/2000/svg"
 width="640.000000pt" height="640.000000pt" viewBox="0 0 640.000000 640.000000"
 preserveAspectRatio="xMidYMid meet">
<metadata>
Created by potrace 1.11, written by Peter Selinger 2001-2013
</metadata>
<g transform="translate(0.000000,640.000000) scale(0.100000,-0.100000)"
fill="#000000" stroke="none">
<path d="M4397 4153 c-4 -3 -7 -21 -7 -40 0 -31 -1 -33 -22 -21 -13 7 -26 17
-29 22 -12 16 -26 -3 -21 -29 5 -28 36 -50 53 -39 6 4 15 0 20 -7 6 -11 11
-11 21 -1 18 18 78 15 95 -5 14 -17 14 -17 9 0 -3 10 -6 23 -6 28 0 6 -4 7
-10 4 -5 -3 -10 -2 -10 4 0 5 4 11 10 13 6 2 6 14 1 33 -5 17 -10 22 -10 13
-1 -10 -5 -18 -11 -18 -5 0 -13 -12 -16 -27 -7 -25 -8 -25 -15 -8 -4 13 -2 24
7 31 7 6 12 20 11 33 l-1 22 -18 -23 c-9 -13 -19 -34 -20 -48 l-4 -25 -14 28
c-10 21 -11 30 -2 39 7 7 12 16 12 20 0 10 -14 11 -23 1z"/>
<path d="M3486 4015 c-24 -19 -28 -28 -23 -54 4 -20 3 -31 -5 -31 -14 0 -1
-14 15 -16 7 0 20 -2 30 -2 9 -1 17 -7 17 -13 0 -13 41 -48 56 -49 17 0 60
-37 53 -44 -3 -4 -17 3 -32 14 -32 25 -37 25 -37 0 0 -13 16 -30 43 -48 78
-50 239 -175 311 -241 100 -92 156 -138 267 -214 l97 -66 6 58 c6 56 33 122
53 128 5 2 15 -8 22 -23 6 -15 14 -24 18 -21 3 4 0 13 -7 22 -19 22 -9 26 32
12 l36 -13 -17 -50 c-10 -27 -24 -60 -30 -73 -7 -13 -9 -21 -3 -17 5 3 22 35
37 70 17 40 34 66 46 69 23 6 24 -6 3 -39 -24 -36 -25 -73 -3 -97 10 -11 19
-19 20 -16 14 81 33 139 46 139 11 0 12 -16 7 -78 -6 -68 -4 -80 10 -85 20 -8
20 -71 -1 -104 -7 -12 -13 -33 -13 -45 0 -23 -36 -67 -85 -107 -22 -17 -26
-26 -20 -48 l6 -27 22 26 c12 15 36 29 53 33 35 7 116 62 145 99 23 29 45 35
35 10 -3 -9 -9 -27 -13 -42 -5 -21 -3 -24 11 -19 53 22 52 22 33 0 -10 -12
-19 -31 -20 -43 -1 -12 -14 -31 -30 -42 -16 -12 -26 -26 -23 -34 3 -8 -3 -20
-14 -26 -11 -7 -20 -22 -20 -34 0 -16 -12 -28 -42 -42 -53 -26 -43 -26 104 -4
96 15 122 23 144 43 l26 24 -4 -25 c-4 -34 -40 -49 -132 -57 -42 -3 -79 -11
-83 -16 -8 -13 25 -37 42 -31 7 3 32 -6 55 -21 33 -21 40 -30 35 -46 -5 -14
-1 -25 11 -34 17 -12 16 -13 -8 -8 -23 4 -27 0 -39 -34 -7 -21 -12 -41 -11
-45 1 -5 -5 -8 -14 -8 -8 0 -12 -4 -9 -10 3 -5 -1 -10 -11 -10 -12 0 -14 -3
-6 -13 11 -13 8 -70 -9 -171 -6 -33 -10 -82 -10 -109 0 -32 -4 -45 -11 -41 -7
5 -9 2 -6 -8 4 -8 -2 -30 -13 -47 -14 -23 -18 -42 -14 -64 4 -18 2 -51 -3 -75
-9 -40 -8 -45 19 -75 47 -52 53 -103 6 -59 l-22 21 0 -32 c0 -22 -5 -32 -15
-32 -17 0 -40 -38 -40 -65 0 -10 24 -63 53 -117 52 -98 58 -128 30 -150 -12
-9 -20 -9 -34 0 -10 6 -22 8 -26 3 -12 -12 26 -36 45 -28 15 5 16 4 2 -14 -14
-18 -14 -18 2 -5 14 10 25 11 49 2 40 -14 48 -14 29 0 -11 8 -9 9 10 3 14 -3
32 -10 40 -15 12 -7 12 -8 -4 -9 -10 0 -36 -5 -57 -12 -33 -9 -38 -14 -33 -34
l6 -23 -52 20 c-60 23 -78 17 -56 -16 15 -22 14 -24 -16 -34 -26 -9 -29 -13
-18 -26 10 -12 10 -19 2 -27 -15 -15 -16 -31 -1 -22 6 3 3 -8 -5 -25 -9 -17
-21 -31 -26 -31 -6 0 -10 -5 -10 -11 0 -5 5 -7 10 -4 6 3 10 -1 10 -9 0 -9
-12 -19 -26 -22 l-27 -7 27 -14 c24 -12 25 -15 11 -29 -8 -9 -13 -20 -10 -25
4 -5 -2 -9 -12 -10 -10 -1 -2 -5 17 -10 45 -11 694 -5 1300 11 261 7 491 12
510 11 45 -2 100 8 100 18 0 4 -364 6 -810 3 -747 -4 -810 -4 -810 12 0 14 15
16 108 17 59 0 195 2 302 4 107 2 423 4 703 4 398 1 507 4 507 14 0 9 -170 12
-817 12 l-818 0 -9 78 c-8 66 -7 79 7 90 9 7 18 34 21 67 3 30 8 67 12 82 5
21 2 27 -18 33 -12 4 -26 13 -31 19 -7 10 0 228 8 271 3 14 24 27 71 45 68 25
88 45 63 61 -20 13 -63 11 -77 -3 -17 -17 -45 21 -30 40 6 7 13 11 15 8 3 -2
18 0 34 4 17 5 31 5 34 -1 4 -5 17 -9 30 -9 17 0 23 -4 19 -14 -3 -9 5 -19 23
-28 41 -19 42 -46 3 -60 -49 -17 -15 -28 55 -19 45 6 62 5 73 -5 19 -19 30
-17 44 6 7 11 21 20 30 20 29 0 69 23 64 36 -3 7 8 18 23 25 26 12 28 15 16
33 -8 12 -15 35 -17 51 -2 20 -10 32 -23 35 -13 4 -22 18 -26 40 -4 19 -7 30
-8 23 0 -6 -9 -14 -18 -16 -16 -4 -16 -5 -1 -6 10 -1 16 -9 15 -21 -2 -24 -25
-34 -43 -19 -11 9 -14 8 -14 -4 0 -24 -35 -40 -49 -23 -7 8 -10 20 -9 27 3 15
-26 23 -50 14 -13 -5 -14 -8 -3 -14 11 -7 9 -13 -6 -28 -23 -23 -47 -8 -31 21
12 21 -6 46 -33 46 -11 0 -19 7 -19 15 0 9 9 15 24 15 28 0 56 33 56 67 0 30
-10 34 -56 21 -52 -15 -64 -26 -64 -54 0 -20 -4 -23 -22 -19 -33 7 -78 -36
-78 -74 0 -16 -5 -33 -11 -37 -8 -4 -10 9 -6 47 3 30 8 82 11 117 3 35 12 91
20 125 44 180 66 278 66 292 0 32 18 4 45 -70 19 -54 32 -75 44 -75 30 0 76
-28 118 -72 22 -24 52 -54 67 -67 14 -12 23 -27 20 -32 -3 -5 -1 -9 4 -9 5 0
20 -16 34 -36 l26 -36 16 23 c21 31 20 38 -4 32 -19 -5 -24 4 -23 45 1 6 -7
12 -17 12 -10 0 -23 7 -30 15 -15 18 1 20 18 3 10 -10 20 -8 47 6 38 21 47 46
15 46 -11 0 -20 6 -20 14 0 7 -11 21 -25 30 -28 19 -33 36 -9 36 14 0 15 8 9
48 -8 54 -10 57 -47 66 -21 5 -28 3 -28 -9 0 -8 -4 -23 -9 -33 -5 -9 -16 -35
-26 -57 -16 -37 -16 -40 1 -52 10 -7 15 -16 11 -19 -3 -3 -15 3 -27 14 -12 11
-18 22 -13 25 15 9 2 101 -28 201 -5 16 -9 42 -9 58 0 16 -4 27 -8 24 -5 -3
-5 20 0 52 5 31 10 57 11 58 1 0 22 14 47 31 25 16 69 38 98 48 28 11 52 23
52 27 0 5 -6 24 -14 42 -16 40 -19 158 -3 168 7 4 4 24 -9 60 -23 60 -17 92
18 102 17 4 19 10 14 40 -5 24 -2 39 7 48 10 9 12 20 6 35 -5 13 -4 25 1 28 6
4 12 0 14 -7 11 -31 62 -254 143 -626 6 -24 30 -25 26 -1 -2 8 -6 34 -11 59
l-8 45 51 2 c29 2 63 7 76 13 20 9 16 10 -24 6 -31 -2 -50 1 -53 8 -8 21 -84
398 -84 415 0 12 22 29 64 50 l63 32 83 -31 c152 -56 93 -24 -92 50 -101 41
-250 102 -333 138 -139 59 -154 63 -203 58 -66 -8 -132 2 -132 20 0 8 -6 11
-15 7 -21 -7 -55 25 -55 52 0 13 -7 28 -16 36 -9 7 -31 42 -49 78 -18 36 -47
82 -64 101 -17 19 -40 46 -51 58 -14 16 -27 21 -38 17 -29 -13 -102 -13 -102
-1 0 6 -5 4 -10 -4 -8 -13 -14 -13 -44 4 -41 22 -75 16 -122 -19 -36 -27 -87
-112 -103 -170 -10 -36 -3 -130 15 -202 l7 -25 -49 27 c-27 14 -74 45 -104 70
-30 24 -96 69 -147 99 -51 31 -95 61 -98 66 -3 6 -17 10 -31 10 -14 0 -37 8
-51 18 -15 9 -40 22 -57 27 -19 6 -43 30 -66 62 -20 29 -38 54 -40 57 -3 2
-18 -6 -34 -19z m834 -33 c3 -2 -1 -7 -7 -9 -7 -3 -13 -14 -13 -25 0 -14 -5
-18 -19 -13 -13 4 -20 -1 -25 -17 -5 -19 -8 -20 -15 -8 -23 40 13 95 54 83 11
-3 22 -8 25 -11z m145 -7 c6 -1 9 -6 8 -13 -2 -6 8 -14 21 -18 28 -7 44 -34
20 -34 -9 0 -32 14 -51 30 -18 17 -37 30 -42 30 -4 0 -8 7 -8 14 0 12 4 13 21
3 12 -6 26 -12 31 -12z m-935 -19 c0 -3 -4 -8 -10 -11 -5 -3 -10 -1 -10 4 0 6
5 11 10 11 6 0 10 -2 10 -4z m700 -86 c-8 -5 -22 -9 -30 -9 -10 0 -8 3 5 9 27
12 43 12 25 0z m77 -77 c29 -1 62 -7 73 -13 14 -7 20 -7 20 0 0 7 6 7 18 1 9
-5 25 -12 35 -15 9 -3 17 -12 17 -21 0 -16 -15 -20 -24 -6 -9 14 -113 -13
-137 -35 l-21 -19 28 -23 c21 -19 36 -23 71 -20 46 3 50 -2 28 -42 -7 -14 -11
-37 -8 -52 5 -23 0 -30 -26 -45 -21 -13 -29 -23 -25 -35 3 -10 0 -18 -6 -18
-6 0 -8 5 -5 10 3 6 1 10 -4 10 -6 0 -11 -4 -11 -10 0 -11 -30 -13 -54 -4 -9
3 -16 10 -16 15 0 6 -9 22 -20 37 -24 33 -34 100 -17 121 9 12 9 13 0 7 -7 -4
-13 -3 -13 1 0 5 6 15 13 22 10 10 8 16 -10 31 -26 21 -31 77 -11 109 10 16
16 18 32 8 12 -6 45 -12 73 -14z m237 -138 c4 -15 0 -37 -8 -52 l-13 -27 -8
23 c-8 27 3 94 14 86 5 -2 12 -16 15 -30z m186 -381 c0 -8 -11 -26 -25 -40
-21 -21 -28 -24 -41 -13 -13 11 -11 17 17 45 32 33 49 36 49 8z m30 -344 c0
-6 -11 -15 -24 -20 -13 -5 -26 -15 -29 -22 -2 -7 -8 -9 -13 -5 -5 5 4 19 21
33 33 26 45 30 45 14z m30 -34 c0 -11 -19 -15 -25 -6 -3 5 1 10 9 10 9 0 16
-2 16 -4z m345 -543 c3 -10 1 -19 -4 -21 -6 -2 -9 -8 -5 -13 3 -5 -1 -9 -9 -9
-9 0 -14 11 -14 30 0 33 21 41 32 13z m-291 -369 c4 -10 -2 -14 -19 -14 -17 0
-23 5 -22 19 1 21 32 18 41 -5z m296 -104 c0 -5 -9 -10 -21 -10 -11 0 -17 5
-14 10 3 6 13 10 21 10 8 0 14 -4 14 -10z m-460 -425 c7 -8 8 -15 2 -15 -5 0
-15 7 -22 15 -7 8 -8 15 -2 15 5 0 15 -7 22 -15z m-83 -205 c-14 -27 -14 -30
1 -30 15 0 15 -2 2 -10 -13 -9 -13 -11 0 -21 13 -9 12 -10 -2 -5 -10 3 -18 1
-18 -5 0 -6 -5 -7 -10 -4 -8 5 -7 11 1 21 6 8 9 18 5 21 -4 4 -12 1 -17 -7
-13 -18 -8 -5 10 33 8 15 18 27 23 27 4 0 8 8 9 18 0 10 3 12 6 5 2 -7 -2 -26
-10 -43z"/>
<path d="M4256 3631 c-18 -34 -19 -41 -8 -41 9 0 34 61 28 68 -3 2 -12 -10
-20 -27z"/>
<path d="M4307 3602 c-9 -2 -15 -8 -12 -13 8 -12 45 -12 45 0 0 13 -12 18 -33
13z"/>
<path d="M4310 3550 c0 -5 9 -10 19 -10 11 0 23 5 26 10 4 6 -5 10 -19 10 -14
0 -26 -4 -26 -10z"/>
<path d="M6343 3473 c-29 -14 -55 -33 -58 -42 -3 -10 -20 -24 -38 -32 -51 -22
-49 -62 7 -123 l45 -50 50 24 51 23 0 114 c0 62 -1 113 -2 112 -2 0 -26 -12
-55 -26z"/>
<path d="M4053 3342 c-9 -6 -6 -29 13 -92 24 -82 97 -378 115 -470 5 -24 14
-49 19 -54 19 -19 22 3 7 54 -15 50 -15 53 4 57 13 4 17 12 14 27 -3 11 -14
59 -24 106 -84 368 -98 404 -148 372z"/>
<path d="M5894 3125 c17 -91 34 -165 39 -165 12 0 7 36 -21 184 -15 77 -32
141 -38 143 -6 2 2 -64 20 -162z"/>
<path d="M980 3259 c-19 -12 -51 -26 -70 -31 -19 -6 -49 -25 -68 -44 -18 -18
-39 -31 -46 -28 -7 3 -19 -2 -26 -11 -7 -8 -23 -15 -37 -15 -14 0 -21 -4 -18
-10 3 -5 -1 -10 -9 -10 -19 0 -31 -19 -19 -31 5 -5 20 -3 35 5 15 8 29 12 32
9 3 -3 10 7 16 22 7 19 15 25 26 21 9 -3 20 -6 25 -6 5 0 8 -3 7 -7 0 -5 2
-16 7 -26 5 -11 2 -24 -9 -36 -9 -10 -13 -20 -10 -23 3 -4 -13 -24 -36 -45
-22 -21 -49 -56 -60 -78 -18 -39 -67 -85 -91 -85 -6 0 -39 -24 -72 -53 -34
-29 -74 -61 -89 -70 -14 -9 -54 -55 -88 -102 l-62 -85 -48 0 c-55 0 -80 7 -80
23 0 6 60 70 132 142 73 71 139 141 146 155 8 14 36 43 62 65 27 22 55 50 61
63 7 12 21 22 31 22 10 0 18 7 18 15 0 9 -9 15 -21 15 -11 0 -19 5 -17 12 6
16 -28 48 -49 48 -16 1 -16 2 2 15 11 8 26 19 33 26 26 22 97 59 115 59 10 0
32 7 49 16 49 25 21 38 -79 36 -155 -2 -238 -28 -433 -132 -19 -10 -50 -24
-67 -32 -18 -7 -33 -16 -33 -20 0 -5 -5 -8 -11 -8 -22 0 -79 -32 -79 -45 0 -6
-11 -24 -25 -39 l-25 -27 0 -395 c0 -256 4 -394 10 -394 6 0 10 -9 10 -19 0
-11 10 -27 22 -36 21 -14 23 -14 28 2 9 31 40 24 57 -13 20 -40 43 -46 35 -9
-4 25 11 35 23 15 9 -15 25 -12 25 5 0 18 12 19 28 3 9 -9 12 -9 12 -1 0 7 -4
15 -10 18 -17 11 -11 30 13 40 12 6 23 20 25 33 4 23 16 29 27 12 13 -21 27
-9 22 17 -5 26 -4 26 9 8 8 -10 14 -22 14 -27 0 -4 7 -8 15 -8 8 0 24 -9 35
-20 25 -25 28 -25 32 0 4 26 22 27 26 3 9 -41 72 -84 72 -48 0 8 -4 15 -10 15
-16 0 -11 27 6 34 27 10 36 7 29 -13 -6 -21 19 -49 30 -32 8 13 -11 49 -42 81
-17 17 -21 26 -12 29 7 2 22 -8 34 -23 11 -14 26 -26 32 -26 12 0 23 -23 23
-50 0 -10 6 -20 14 -23 9 -4 12 0 9 13 -3 10 0 21 6 24 7 5 7 13 -2 26 -9 16
-9 24 1 40 30 49 -8 140 -83 196 -14 10 -16 14 -5 13 26 -2 61 13 57 25 -3 6
-10 10 -18 8 -26 -6 -109 -5 -116 2 -4 3 -6 23 -6 44 1 33 0 35 -12 18 -18
-24 -34 -13 -27 19 6 34 20 41 38 19 14 -17 15 -17 10 -1 -3 9 -1 17 4 17 6 0
5 8 -2 20 -16 25 -3 38 23 22 19 -12 39 -9 39 6 0 4 -10 12 -22 17 -31 13 -26
26 14 39 18 6 37 21 43 34 5 12 17 24 25 27 17 5 64 50 84 80 22 32 66 10 93
-45 12 -25 19 -47 17 -49 -2 -2 12 -16 31 -30 39 -29 85 -88 85 -108 0 -8 7
-25 16 -38 13 -20 14 -25 3 -25 -10 0 -14 -14 -14 -51 0 -39 5 -54 21 -67 12
-9 33 -48 48 -87 29 -77 71 -152 82 -147 4 2 10 -2 15 -9 4 -8 11 -10 14 -7 7
7 -23 162 -36 189 -5 9 -6 19 -2 22 7 8 43 -62 43 -85 0 -9 5 -20 10 -23 6 -4
10 5 10 20 0 25 0 25 25 9 14 -9 25 -24 23 -33 -4 -27 23 -91 38 -91 8 0 14
-10 14 -24 0 -14 4 -35 9 -48 8 -21 14 -23 51 -20 31 3 44 9 47 23 5 17 6 17
23 -3 11 -14 28 -21 48 -21 18 0 32 -5 32 -10 0 -5 10 -7 22 -4 12 3 30 1 40
-4 33 -18 48 -5 35 30 -14 37 -3 50 25 32 18 -11 22 -11 30 3 5 8 14 13 21 10
14 -5 59 47 63 72 3 17 -27 19 -43 3 -9 -9 -26 -5 -69 16 l-58 28 42 18 c79
34 133 49 172 49 44 0 47 -4 25 -26 -22 -22 -19 -31 15 -37 31 -7 42 -27 14
-27 -8 0 -12 5 -9 10 3 6 1 10 -5 10 -8 0 -10 -15 -5 -49 7 -49 6 -50 -22 -53
-20 -2 -28 -8 -28 -23 0 -28 29 -30 69 -6 32 20 33 23 23 51 -13 35 -1 53 18
26 8 -10 16 -23 17 -28 2 -5 20 -13 40 -17 27 -6 40 -5 51 6 10 10 17 12 21 4
4 -6 0 -14 -9 -18 -13 -4 -9 -10 20 -23 31 -14 34 -18 21 -29 -8 -7 -20 -10
-26 -6 -13 8 -60 17 -60 11 0 -3 4 -16 10 -30 7 -20 15 -25 39 -23 17 1 33 8
36 14 2 7 14 13 25 13 21 0 25 17 20 93 -1 30 4 43 24 62 22 20 29 22 54 13
42 -16 113 18 146 70 14 22 29 43 34 46 12 7 119 7 165 0 28 -5 41 -13 53 -35
19 -38 28 -37 20 2 -5 26 -3 30 10 25 9 -3 18 -6 20 -6 3 0 2 -5 -2 -12 -5 -7
-3 -8 7 -2 27 17 81 32 96 27 8 -3 24 4 36 15 12 11 54 32 92 46 39 13 117 43
175 65 85 33 117 41 172 41 37 0 69 -4 73 -9 3 -5 19 -12 35 -16 23 -5 58 5
145 39 63 26 136 49 161 53 40 5 46 3 50 -14 5 -18 9 -19 35 -10 62 24 37 39
-204 123 -37 13 -109 44 -159 70 -113 59 -233 100 -318 109 -93 9 -121 20
-257 97 -209 117 -204 116 -396 123 -92 3 -190 10 -218 15 -29 6 -87 10 -130
10 -43 0 -90 5 -106 11 -15 6 -57 15 -93 19 -49 7 -87 21 -148 54 -81 45 -84
46 -175 46 -104 0 -292 18 -322 30 -48 21 -80 20 -115 -1z m-460 -189 c0 -9
-40 -30 -56 -30 -14 0 0 22 19 30 30 12 37 12 37 0z m460 -571 c0 -6 -4 -7
-10 -4 -5 3 -10 11 -10 16 0 6 5 7 10 4 6 -3 10 -11 10 -16z m300 -29 c0 -5
-4 -10 -10 -10 -5 0 -10 5 -10 10 0 6 5 10 10 10 6 0 10 -4 10 -10z m-250 -31
c0 -6 -4 -7 -10 -4 -5 3 -10 11 -10 16 0 6 5 7 10 4 6 -3 10 -11 10 -16z
m1095 -79 c4 -6 2 -17 -5 -24 -8 -11 -8 -15 2 -18 10 -4 10 -8 -1 -21 -16 -20
-47 -22 -54 -4 -3 8 -10 5 -22 -10 -20 -28 -25 -28 -71 -1 l-36 21 28 15 c26
14 129 50 146 51 4 1 10 -4 13 -9z m-1525 -21 c0 -6 -4 -7 -10 -4 -5 3 -10 11
-10 16 0 6 5 7 10 4 6 -3 10 -11 10 -16z m-555 1 c3 -5 3 -15 -1 -21 -6 -11
-23 6 -24 24 0 10 18 9 25 -3z m575 -61 c0 -5 -4 -9 -10 -9 -5 0 -10 7 -10 16
0 8 5 12 10 9 6 -3 10 -10 10 -16z m647 -11 c-3 -8 -6 -5 -6 6 -1 11 2 17 5
13 3 -3 4 -12 1 -19z m199 -67 c-13 -20 -26 -11 -26 16 0 25 1 26 16 11 9 -9
13 -21 10 -27z m-16 -63 c0 -18 -5 -40 -10 -48 -8 -11 -10 -2 -8 33 2 52 18
66 18 15z m160 17 c0 -9 -6 -12 -15 -9 -8 4 -12 10 -9 15 8 14 24 10 24 -6z"/>
<path d="M4287 3170 c-3 -11 -1 -33 3 -48 l8 -27 1 32 c1 17 4 38 7 47 3 9 2
16 -4 16 -5 0 -12 -9 -15 -20z"/>
<path d="M0 3050 c0 -23 13 -26 29 -6 9 11 8 15 -5 20 -23 9 -24 8 -24 -14z"/>
<path d="M6240 2999 c-19 -10 -47 -18 -62 -19 -33 0 -98 -59 -98 -89 0 -11 -4
-21 -10 -21 -5 0 -10 -7 -10 -16 0 -10 6 -14 15 -10 18 6 18 5 6 -27 -8 -19
-6 -27 5 -31 20 -8 18 -26 -3 -26 -10 0 -27 -7 -37 -15 -11 -8 -28 -15 -37
-15 -27 0 -29 -11 -21 -98 4 -44 5 -89 1 -99 -4 -11 1 -24 13 -35 19 -16 23
-37 20 -90 -2 -32 -33 -45 -74 -29 -23 9 -27 7 -32 -14 -3 -13 -15 -27 -26
-30 -27 -8 -54 -50 -46 -71 9 -22 -10 -51 -45 -69 -40 -21 -184 -28 -168 -9 6
8 8 25 5 39 -5 20 -1 27 25 41 21 10 28 19 21 26 -16 16 -74 -19 -67 -41 5
-15 -3 -21 -42 -30 -26 -7 -50 -16 -53 -20 -3 -4 -21 -17 -40 -29 l-35 -22 32
0 c17 0 33 5 35 12 7 20 58 0 58 -23 0 -11 7 -22 14 -25 11 -4 14 -21 13 -65
-2 -59 -16 -73 -28 -28 -7 23 -7 23 -8 2 -1 -28 37 -57 56 -41 17 13 17 1 1
-16 -19 -18 -30 -19 -39 -4 -7 11 -11 10 -19 -2 -8 -13 -11 -12 -16 7 -4 15
-13 21 -29 19 -28 -3 -55 -23 -55 -42 0 -7 -7 -20 -16 -29 -20 -20 -3 -45 32
-45 12 0 26 -5 30 -11 4 -7 24 -9 50 -6 24 2 42 1 39 -3 -2 -3 2 -7 10 -7 8 0
15 5 15 11 1 6 8 -2 16 -17 8 -15 19 -25 23 -22 5 3 12 -6 15 -20 3 -13 15
-29 27 -35 15 -9 18 -15 9 -25 -8 -10 -3 -18 22 -36 18 -13 35 -26 38 -29 14
-17 44 -19 61 -4 10 9 23 13 28 9 19 -11 12 -21 -25 -35 -32 -13 -35 -17 -30
-43 3 -16 6 -36 6 -43 0 -23 36 -35 79 -25 33 7 41 5 55 -11 9 -10 30 -21 46
-24 39 -8 72 -61 56 -89 -6 -11 -15 -23 -21 -28 -6 -4 -3 -12 8 -21 10 -8 15
-20 11 -30 -4 -10 -1 -16 7 -17 8 0 32 -2 54 -4 22 -2 51 -4 64 -5 14 0 29 -6
34 -12 7 -10 10 -10 14 1 3 7 14 22 24 32 19 19 19 19 -1 39 -11 11 -24 20
-30 20 -15 0 -12 16 5 34 14 13 12 19 -14 58 -16 24 -26 44 -21 46 5 2 1 13
-9 24 -11 11 -21 29 -24 39 -5 17 -3 18 9 8 12 -10 15 -10 12 2 -2 10 7 14 29
14 42 0 51 12 20 26 -15 7 -24 16 -21 20 5 9 -27 50 -35 44 -4 -2 -5 14 -3 35
l4 38 31 -13 c19 -8 34 -23 37 -37 6 -21 7 -22 16 -4 13 21 49 18 49 -4 0 -8
7 -15 16 -14 25 2 18 -26 -10 -44 -49 -31 -54 -40 -30 -53 18 -9 21 -9 16 3
-9 24 33 52 75 51 l38 -2 0 60 c0 32 -4 59 -9 59 -10 0 -9 27 4 73 9 32 -10
61 -36 54 -10 -3 -27 2 -39 10 -25 18 -38 10 -20 -12 11 -13 10 -21 -8 -45
-12 -16 -22 -34 -22 -40 0 -5 -7 -10 -15 -10 -8 0 -15 9 -15 19 0 11 -3 27 -7
37 -4 12 -3 15 5 10 7 -4 12 -3 12 2 0 14 -20 19 -64 16 -31 -3 -45 3 -77 29
-36 30 -52 67 -29 67 6 0 10 7 10 15 0 8 7 15 15 15 8 0 25 14 37 31 13 17 33
35 46 40 12 5 22 15 22 24 0 18 -5 18 -30 5 -13 -7 -19 -6 -23 4 -6 14 -61 13
-152 -1 -43 -8 -54 -6 -80 13 -16 12 -41 21 -54 20 -51 -3 -50 74 1 87 15 4
18 11 13 26 -7 24 32 52 45 31 9 -15 30 -4 30 16 0 8 5 14 10 14 6 0 21 11 34
25 13 14 29 25 35 25 18 0 171 79 171 89 0 19 83 91 105 91 13 0 37 12 54 27
30 26 31 31 31 105 l0 78 -62 -1 c-126 -2 -190 25 -122 52 15 5 40 21 56 34
16 14 33 23 37 20 5 -2 8 10 9 28 0 17 6 33 11 35 14 5 15 32 2 32 -6 0 -13
-4 -16 -10 -3 -5 -15 -10 -26 -10 -10 0 -28 -5 -39 -12 -10 -7 -22 -9 -26 -5
-10 10 16 37 36 37 23 0 44 26 36 45 -7 18 -12 18 -56 -6z m-513 -933 c-5 -13
-45 -10 -64 5 -11 10 -10 14 4 24 14 10 21 10 40 -3 13 -8 22 -20 20 -26z
m166 6 c11 -9 22 -10 41 -2 38 14 66 13 66 -3 0 -16 -32 -33 -77 -42 -17 -3
-37 -13 -44 -21 -17 -21 -25 -17 -24 14 0 23 -4 27 -32 30 -29 3 -43 19 -28
33 9 10 83 3 98 -9z m183 -8 c-3 -8 -2 -12 4 -9 6 3 10 -1 10 -10 0 -9 -4 -13
-10 -10 -5 3 -10 -1 -10 -9 0 -27 -34 -84 -57 -95 -19 -9 -27 -6 -48 15 -18
18 -31 23 -46 19 -15 -5 -19 -4 -15 4 4 6 13 11 20 11 8 0 26 7 42 15 16 8 39
12 53 8 20 -5 23 -3 18 11 -4 10 0 28 11 41 19 27 37 33 28 9z m-400 -141 c13
-17 13 -17 14 1 0 12 5 16 16 12 9 -3 21 -6 27 -6 6 0 1 -7 -11 -16 -13 -9
-21 -22 -18 -30 3 -8 -1 -17 -9 -20 -8 -4 -15 -12 -15 -20 0 -8 -4 -14 -10
-14 -5 0 -10 9 -10 20 0 11 -9 28 -20 37 -18 16 -18 18 -3 35 20 22 23 22 39
1z m281 -20 c3 -7 -3 -9 -17 -6 -28 8 -34 20 -8 19 12 0 23 -6 25 -13z m-201
-10 c-4 -9 -1 -20 5 -24 19 -11 20 -42 2 -61 -20 -22 -34 -23 -27 -3 4 8 2 15
-4 15 -5 0 -12 -9 -15 -21 -3 -12 -10 -18 -16 -15 -15 10 4 52 22 48 15 -3 17
13 4 35 -10 16 2 43 20 43 10 0 13 -6 9 -17z m331 -47 c-4 -10 1 -13 16 -10
22 4 22 4 0 -7 -13 -7 -23 -16 -23 -21 0 -4 -7 -8 -16 -8 -24 0 0 59 25 60 2
0 1 -6 -2 -14z m113 -7 c0 -11 -4 -17 -10 -14 -5 3 -10 13 -10 21 0 8 5 14 10
14 6 0 10 -9 10 -21z m-46 -38 c11 -4 15 -10 10 -13 -10 -6 -54 8 -54 17 0 7
21 5 44 -4z m188 -39 c-6 -2 -12 -12 -12 -22 0 -34 -15 -29 -16 5 0 28 2 31
20 27 11 -3 15 -7 8 -10z m-509 -9 c-2 -7 7 -18 19 -24 21 -11 21 -12 3 -25
-22 -17 -59 -18 -86 -4 -19 11 -19 12 -2 41 13 22 24 29 43 27 14 -2 24 -8 23
-15z m415 -8 c-3 -3 -9 2 -12 12 -6 14 -5 15 5 6 7 -7 10 -15 7 -18z m112 -30
c0 -8 4 -15 9 -15 5 0 8 -8 6 -17 -2 -10 -4 -20 -4 -22 -1 -3 -6 0 -12 6 -14
14 -20 63 -8 63 5 0 9 -7 9 -15z m-220 -149 c0 -3 -4 -8 -10 -11 -5 -3 -10 -1
-10 4 0 6 5 11 10 11 6 0 10 -2 10 -4z m25 -36 c3 -6 0 -13 -9 -16 -8 -3 -12
-12 -9 -20 3 -8 0 -14 -6 -14 -6 0 -11 7 -11 15 0 8 -4 15 -10 15 -17 0 -11
18 8 23 28 8 31 7 37 -3z"/>
<path d="M6382 2985 c-10 -21 -9 -25 3 -25 9 0 15 10 15 25 0 14 -2 25 -3 25
-2 0 -9 -11 -15 -25z"/>
<path d="M5238 2903 c-10 -2 -18 -8 -18 -13 0 -5 7 -7 15 -4 10 4 15 0 15 -14
0 -13 8 -21 25 -24 31 -6 38 3 29 37 -6 25 -23 30 -66 18z"/>
<path d="M5583 2763 c-22 -8 -14 -23 13 -23 15 0 24 5 22 12 -5 14 -18 18 -35
11z"/>
<path d="M5680 2720 c0 -5 -11 -10 -25 -10 -14 0 -25 -5 -25 -11 0 -6 -9 -9
-20 -6 -11 3 -23 1 -26 -5 -3 -5 3 -12 15 -15 30 -8 26 -22 -6 -20 -30 2 -43
-24 -23 -48 16 -19 68 0 82 31 6 13 19 26 30 29 10 4 18 16 18 27 0 13 5 18
14 15 10 -4 13 -1 9 9 -6 16 -43 20 -43 4z"/>
<path d="M4535 2690 c-3 -5 -2 -10 4 -10 5 0 13 5 16 10 3 6 2 10 -4 10 -5 0
-13 -4 -16 -10z"/>
<path d="M4620 2565 c-32 -18 -25 -18 25 0 22 8 31 14 20 14 -11 0 -31 -6 -45
-14z"/>
<path d="M780 2560 c0 -5 5 -10 10 -10 6 0 10 5 10 10 0 6 -4 10 -10 10 -5 0
-10 -4 -10 -10z"/>
<path d="M3990 2554 c-15 -5 -43 -74 -30 -74 16 0 58 52 53 66 -3 8 -6 13 -7
13 0 -1 -8 -3 -16 -5z"/>
<path d="M4537 2543 c-10 -3 -30 -11 -45 -19 l-27 -14 26 0 c14 0 29 3 33 8 4
4 22 12 39 19 32 11 12 16 -26 6z"/>
<path d="M5297 2523 c-12 -11 -8 -23 8 -23 8 0 15 7 15 15 0 16 -12 20 -23 8z"/>
<path d="M5337 2523 c-11 -10 -8 -43 3 -43 6 0 10 5 10 12 0 9 3 9 12 0 8 -8
8 -15 0 -24 -6 -8 -7 -19 -2 -27 7 -12 13 -12 40 -1 31 13 32 14 12 29 -11 9
-25 26 -31 39 -11 22 -31 29 -44 15z"/>
<path d="M5853 2523 c-7 -2 -13 -9 -13 -14 0 -12 47 -11 55 1 4 6 15 8 26 5
11 -4 19 -2 19 4 0 11 -64 14 -87 4z"/>
<path d="M6354 2498 c-4 -6 -2 -14 4 -16 7 -2 12 -10 12 -19 0 -25 25 -8 28
20 3 21 -1 27 -17 27 -11 0 -23 -5 -27 -12z"/>
<path d="M4450 2490 c0 -5 5 -10 11 -10 5 0 7 5 4 10 -3 6 -8 10 -11 10 -2 0
-4 -4 -4 -10z"/>
<path d="M4490 2475 c-7 -8 -16 -12 -22 -9 -5 3 -7 -5 -5 -18 2 -12 2 -17 0
-10 -5 14 -19 16 -27 3 -3 -5 -26 -6 -51 -4 -35 4 -46 2 -51 -11 -3 -9 -12
-16 -20 -16 -8 0 -14 -5 -14 -11 0 -7 11 -8 30 -4 41 9 38 0 -10 -30 -23 -14
-38 -30 -35 -35 3 -6 -1 -10 -10 -10 -12 0 -15 -6 -10 -20 6 -20 -15 -46 -65
-80 -15 -11 -22 -26 -22 -45 0 -17 -7 -40 -15 -53 -8 -13 -12 -30 -9 -38 3 -8
2 -13 -3 -10 -7 5 -13 -19 -25 -96 -1 -9 -8 -24 -16 -33 -16 -19 -16 -21 -25
-185 -4 -69 -9 -136 -11 -150 -22 -127 -14 -183 29 -199 20 -7 18 -9 -16 -22
-20 -7 -37 -17 -37 -21 0 -4 3 -7 8 -7 27 5 54 -4 72 -23 26 -28 25 -38 -2
-39 -13 0 -17 -3 -10 -6 6 -2 12 -8 12 -13 0 -4 -6 -8 -12 -7 -33 1 -49 -4
-43 -13 3 -5 2 -10 -4 -10 -20 0 -23 22 -5 36 37 30 -33 6 -81 -28 -54 -38
-51 -50 6 -19 43 24 60 21 43 -7 -7 -11 -30 -19 -63 -23 -62 -8 -70 -14 -42
-28 18 -10 19 -14 8 -34 -6 -12 -16 -25 -20 -28 -14 -10 122 -19 308 -19 147
0 185 3 203 16 36 25 27 36 -28 31 -27 -3 -50 -2 -50 3 0 4 -20 5 -45 2 l-46
-5 6 53 c4 30 13 67 22 83 19 37 10 125 -16 159 -33 43 -38 83 -31 262 2 55 9
100 15 102 28 11 222 21 238 13 20 -11 21 -7 6 45 l-11 40 -18 -24 c-16 -22
-20 -22 -49 -10 -39 16 -40 28 0 32 28 3 29 4 15 23 -14 19 -16 19 -44 3 -34
-20 -97 -27 -112 -12 -8 8 -1 11 21 12 31 1 69 26 57 37 -3 3 -19 7 -37 8 -17
1 -31 6 -31 10 0 24 35 81 89 146 99 118 124 160 132 217 4 29 10 61 14 73 5
16 3 20 -9 15 -9 -3 -16 -12 -16 -20 0 -8 -4 -14 -10 -14 -5 0 -10 13 -10 30
0 24 6 33 33 44 26 12 28 15 11 15 -12 1 -27 -6 -34 -14z m-180 -179 c0 -16
-18 -31 -27 -22 -8 8 5 36 17 36 5 0 10 -6 10 -14z m-111 -355 c8 -5 11 -16 8
-26 -8 -20 -23 -13 -30 15 -6 22 0 25 22 11z m-85 -570 c4 -5 -3 -7 -14 -4
-23 6 -26 13 -6 13 8 0 17 -4 20 -9z m146 -1 c0 -5 -4 -10 -10 -10 -5 0 -10 5
-10 10 0 6 5 10 10 10 6 0 10 -4 10 -10z"/>
<path d="M3840 2466 c0 -8 -7 -22 -16 -30 -11 -12 -12 -16 -2 -16 22 0 38 15
43 38 2 14 -1 22 -11 22 -8 0 -14 -6 -14 -14z"/>
<path d="M4410 2449 c0 -5 5 -7 10 -4 6 3 10 8 10 11 0 2 -4 4 -10 4 -5 0 -10
-5 -10 -11z"/>
<path d="M3200 2423 c0 -25 1 -26 16 -11 9 9 13 21 10 27 -13 20 -26 11 -26
-16z"/>
<path d="M5430 2435 c-7 -9 -10 -18 -7 -21 9 -9 48 16 42 27 -9 13 -21 11 -35
-6z"/>
<path d="M4105 2430 c-8 -13 5 -13 25 0 13 8 13 10 -2 10 -9 0 -20 -4 -23 -10z"/>
<path d="M5331 2404 c0 -11 3 -14 6 -6 3 7 2 16 -1 19 -3 4 -6 -2 -5 -13z"/>
<path d="M3575 2390 l-30 -8 27 -1 c15 0 30 4 33 9 3 6 5 9 3 9 -2 -1 -16 -5
-33 -9z"/>
<path d="M6201 2377 c-33 -17 -31 -31 5 -35 30 -3 64 18 64 39 0 13 -41 11
-69 -4z"/>
<path d="M5250 2370 c0 -5 5 -10 10 -10 6 0 10 5 10 10 0 6 -4 10 -10 10 -5 0
-10 -4 -10 -10z"/>
<path d="M5450 2371 c0 -6 5 -13 10 -16 6 -3 10 1 10 9 0 9 -4 16 -10 16 -5 0
-10 -4 -10 -9z"/>
<path d="M3690 2328 c-36 -11 -76 -28 -90 -38 -14 -9 -50 -25 -80 -35 -98 -32
-148 -61 -154 -92 -19 -101 -18 -130 5 -152 24 -23 39 -26 54 -12 6 4 24 4 42
-1 29 -8 31 -11 23 -33 -5 -14 -6 -25 -2 -26 38 -5 112 -3 112 3 0 11 -34 26
-47 21 -7 -3 -13 1 -13 8 0 6 -8 17 -17 24 -15 11 -12 14 23 30 21 10 60 33
85 52 26 18 50 33 54 33 4 0 25 15 46 33 58 49 91 72 129 92 32 16 49 32 50
45 0 3 -13 20 -29 38 -26 28 -36 32 -78 31 -26 0 -77 -10 -113 -21z"/>
<path d="M3259 2326 c-5 -6 -9 -14 -9 -20 0 -5 -12 -23 -27 -38 -24 -25 -25
-28 -7 -28 20 0 130 54 153 75 11 11 3 14 -43 17 -32 1 -61 -1 -67 -6z"/>
<path d="M910 2320 c0 -5 4 -10 9 -10 6 0 13 5 16 10 3 6 -1 10 -9 10 -9 0
-16 -4 -16 -10z"/>
<path d="M2380 2311 c0 -27 -43 -61 -86 -68 -21 -3 -52 -17 -67 -30 -16 -12
-41 -26 -55 -29 -55 -12 -58 -16 -22 -28 20 -7 34 -18 32 -25 -2 -8 4 -21 12
-30 7 -9 16 -25 18 -36 3 -16 10 -19 41 -17 21 1 49 7 63 12 l26 10 -21 35
-21 36 23 8 c12 5 49 17 82 27 54 17 60 22 66 53 8 38 -8 84 -27 77 -6 -2 -17
1 -23 7 -18 18 -41 17 -41 -2z"/>
<path d="M863 2273 c-9 -35 -8 -45 5 -55 13 -11 15 -10 9 4 -3 9 -1 18 4 20 7
2 8 16 2 38 l-9 35 -11 -42z"/>
<path d="M940 2286 c0 -9 7 -16 16 -16 17 0 14 22 -4 28 -7 2 -12 -3 -12 -12z"/>
<path d="M5044 2278 c1 -15 -1 -25 -5 -22 -16 10 -35 -19 -31 -47 6 -40 24
-52 50 -33 27 19 27 37 2 89 -17 34 -20 36 -16 13z"/>
<path d="M6146 2293 c-11 -11 -7 -20 9 -20 8 0 15 4 15 8 0 11 -16 20 -24 12z"/>
<path d="M685 2271 c-9 -31 5 -50 57 -76 28 -14 52 -24 53 -23 2 2 4 17 6 33
5 47 -9 61 -83 79 -21 5 -28 2 -33 -13z"/>
<path d="M6188 2283 c7 -3 16 -2 19 1 4 3 -2 6 -13 5 -11 0 -14 -3 -6 -6z"/>
<path d="M2520 2251 c0 -28 13 -33 38 -15 31 21 27 34 -8 34 -23 0 -30 -5 -30
-19z"/>
<path d="M1130 2221 c0 -21 39 -73 40 -53 0 15 -28 72 -35 72 -3 0 -5 -9 -5
-19z"/>
<path d="M2690 2228 c0 -17 41 -68 55 -68 24 0 115 56 115 72 0 5 -38 8 -85 7
-47 -1 -85 -6 -85 -11z"/>
<path d="M2646 2182 c-16 -18 -15 -19 14 -20 33 -1 33 -1 24 22 -8 21 -17 20
-38 -2z"/>
<path d="M2986 2154 c-4 -10 -1 -14 6 -12 15 5 23 28 10 28 -5 0 -13 -7 -16
-16z"/>
<path d="M6314 2155 c-4 -10 -13 -13 -25 -10 -28 9 -44 -4 -23 -20 17 -12 16
-13 -3 -23 -11 -6 -23 -8 -27 -5 -12 12 -6 -28 9 -56 16 -31 12 -41 -17 -41
-11 0 -18 -7 -18 -20 0 -11 7 -20 15 -20 8 0 15 -4 15 -9 0 -5 15 -13 33 -16
17 -4 38 -12 45 -17 9 -8 12 -5 12 11 0 11 -6 21 -14 21 -17 0 -28 52 -13 62
18 11 27 0 33 -43 5 -27 10 -36 18 -30 11 9 17 11 36 11 14 0 12 84 -2 98 -9
9 -9 12 0 12 8 0 11 18 11 55 l-2 55 -39 0 c-25 0 -41 -5 -44 -15z m71 -153
c3 -9 3 -13 -1 -9 -4 4 -14 1 -22 -6 -13 -10 -15 -9 -9 6 3 9 2 17 -4 17 -6 0
-8 4 -4 10 8 13 32 2 40 -18z"/>
<path d="M5286 2131 c-7 -11 14 -51 26 -51 14 0 8 -23 -9 -35 -24 -18 -6 -38
28 -31 20 4 31 1 37 -10 13 -24 20 1 14 53 -3 29 -11 46 -26 56 -32 21 -64 29
-70 18z"/>
<path d="M5265 2091 c-3 -5 -2 -12 3 -15 5 -3 9 1 9 9 0 17 -3 19 -12 6z"/>
<path d="M480 2060 c0 -5 5 -10 11 -10 5 0 7 5 4 10 -3 6 -8 10 -11 10 -2 0
-4 -4 -4 -10z"/>
<path d="M2650 2045 c0 -7 6 -15 13 -18 9 -3 12 -16 9 -36 -2 -19 0 -31 7 -31
6 0 11 11 11 24 0 13 7 29 15 36 26 22 17 38 -20 38 -22 0 -35 -5 -35 -13z"/>
<path d="M3705 2040 c-3 -5 3 -10 15 -10 12 0 18 5 15 10 -3 6 -10 10 -15 10
-5 0 -12 -4 -15 -10z"/>
<path d="M1320 2030 c0 -5 5 -10 10 -10 6 0 10 5 10 10 0 6 -4 10 -10 10 -5 0
-10 -4 -10 -10z"/>
<path d="M2760 2030 c0 -5 5 -10 10 -10 6 0 10 5 10 10 0 6 -4 10 -10 10 -5 0
-10 -4 -10 -10z"/>
<path d="M2800 2024 c0 -8 5 -12 10 -9 6 4 8 11 5 16 -9 14 -15 11 -15 -7z"/>
<path d="M3965 2026 c-11 -6 -25 -18 -32 -26 -11 -13 -12 -12 -7 5 5 16 4 17
-4 5 -6 -8 -8 -27 -5 -42 3 -16 0 -35 -7 -43 -19 -23 0 -36 39 -29 32 7 33 8
29 50 -2 24 1 45 5 47 5 1 7 12 5 24 -2 17 -6 19 -23 9z"/>
<path d="M4355 2020 c4 -6 11 -8 16 -5 14 9 11 15 -7 15 -8 0 -12 -5 -9 -10z"/>
<path d="M4440 2020 c0 -5 9 -10 20 -10 11 0 20 5 20 10 0 6 -9 10 -20 10 -11
0 -20 -4 -20 -10z"/>
<path d="M6 2013 c-3 -4 -6 -107 -6 -230 l0 -223 80 6 c46 4 80 3 80 -3 0 -5
-24 -9 -54 -10 -32 -1 -65 -8 -80 -18 -23 -16 -26 -24 -26 -80 0 -58 2 -63 20
-58 26 7 26 -14 0 -22 -19 -6 -19 -17 -20 -377 0 -366 0 -370 20 -365 11 3 20
1 20 -4 0 -5 -9 -9 -20 -9 -17 0 -20 -6 -18 -28 2 -15 8 -30 13 -34 6 -5 5 -8
-3 -8 -10 0 -12 -39 -12 -175 l2 -175 24 0 c13 0 29 9 36 19 6 10 17 17 24 14
7 -3 26 2 41 10 15 9 41 18 56 22 15 3 26 9 23 14 -3 4 6 13 20 20 14 6 23 7
20 2 -3 -5 2 -8 11 -6 10 2 46 9 80 15 42 9 60 16 57 25 -4 9 3 11 23 8 24 -4
25 -3 10 7 -9 6 -14 16 -11 22 9 14 -17 28 -41 22 -11 -3 -32 -1 -45 5 -24 9
-24 9 7 9 36 -1 66 19 59 37 -3 8 2 11 15 8 11 -3 19 0 19 7 0 13 29 39 44 40
5 0 3 -7 -5 -16 -11 -13 -9 -14 17 -8 24 5 27 4 17 -7 -7 -7 -13 -21 -13 -31
0 -12 -5 -16 -17 -12 -14 5 -15 4 -4 -4 8 -6 20 -8 28 -5 7 3 13 0 13 -7 0 -7
8 -9 21 -5 14 5 19 3 15 -3 -19 -30 66 -13 98 20 15 16 20 17 27 7 7 -11 15
-10 44 5 19 11 35 22 35 27 0 13 -32 20 -45 9 -8 -7 -12 -5 -12 6 0 12 8 14
36 9 20 -4 37 -10 39 -14 1 -5 14 -6 28 -3 19 3 22 7 12 13 -10 7 -10 9 0 9 6
0 12 6 12 13 0 7 12 14 27 15 15 1 30 7 33 12 4 7 19 5 42 -4 31 -13 37 -13
54 0 18 15 17 15 -8 9 -26 -5 -33 2 -29 27 1 11 -7 10 -31 -3 -11 -6 -22 -9
-24 -6 -7 6 82 57 98 56 7 0 3 -5 -10 -11 -24 -12 -25 -32 -1 -34 41 -3 49 -5
61 -18 12 -11 17 -11 34 1 16 12 17 15 4 23 -8 5 -28 7 -45 5 -16 -3 -9 1 16
8 25 7 56 20 70 29 14 10 17 15 7 12 -26 -9 -22 0 15 43 22 25 26 35 14 30
-10 -4 -21 -7 -23 -7 -2 0 -4 -7 -4 -15 0 -17 -16 -20 -25 -5 -3 6 -14 10 -23
10 -13 -1 -11 -4 7 -14 l24 -14 -23 -7 c-23 -7 -23 -8 -5 -21 18 -13 16 -14
-13 -8 -21 4 -32 3 -32 -5 0 -6 -7 -11 -15 -11 -13 0 -14 4 -4 21 11 21 10 22
-25 16 -20 -3 -36 -4 -36 -2 0 12 117 64 133 59 13 -4 17 -2 13 5 -4 6 -4 11
1 12 4 0 23 2 42 5 21 3 38 -1 42 -8 7 -10 11 -10 21 0 15 15 29 16 26 1 -4
-18 19 -22 25 -4 4 8 2 15 -3 15 -6 0 -10 5 -10 10 0 6 9 10 20 10 11 0 23 7
26 15 7 18 31 20 36 3 3 -8 19 -4 49 13 24 13 46 27 47 32 2 4 12 7 23 7 10 0
19 5 19 11 0 6 -7 9 -15 5 -8 -3 -15 -1 -15 4 0 6 -5 10 -11 10 -14 0 -40 -26
-32 -33 3 -3 -4 -5 -16 -4 -24 1 -29 27 -6 27 13 0 13 3 3 20 -18 29 -28 25
-28 -13 0 -26 -4 -33 -20 -34 -11 -1 -20 4 -20 12 0 7 -6 16 -12 18 -9 4 -10
8 -2 14 6 4 11 16 11 25 0 14 -3 15 -14 6 -7 -6 -16 -8 -20 -5 -3 4 -12 2 -20
-4 -7 -6 -22 -9 -33 -6 -11 3 -20 2 -20 -3 0 -4 11 -10 25 -12 14 -3 25 -1 25
3 0 5 7 9 16 9 10 0 14 -6 10 -15 -3 -8 -1 -15 4 -15 6 0 10 -13 10 -30 0 -40
-28 -40 -41 0 -11 29 -49 44 -49 19 0 -5 -4 -8 -9 -4 -5 3 -8 22 -6 43 1 20 1
31 -2 25 -7 -20 -23 -15 -33 10 -9 22 -9 22 -9 0 -1 -12 5 -23 12 -26 6 -2 9
-8 5 -12 -4 -4 -15 -2 -24 6 -15 12 -16 12 -10 -7 7 -23 -16 -50 -33 -40 -6 4
-22 4 -36 0 -25 -6 -25 -7 -6 -20 11 -8 28 -11 38 -8 15 6 16 5 5 -7 -10 -11
-17 -10 -42 5 -19 11 -38 15 -53 10 -20 -6 -19 -4 5 15 15 12 33 19 39 16 6
-4 13 2 16 14 6 22 18 27 28 11 3 -5 12 -10 18 -9 9 0 9 2 0 5 -6 3 -9 16 -7
30 2 13 0 24 -6 24 -5 0 -10 -7 -10 -15 0 -22 -18 -18 -25 5 -3 11 -11 20 -17
20 -5 0 -8 -7 -5 -15 4 -8 2 -17 -3 -20 -6 -4 -10 1 -10 9 0 9 -4 16 -10 16
-5 0 -10 4 -10 9 0 14 30 22 49 12 9 -5 23 -6 30 -2 9 6 5 13 -14 25 -15 10
-24 20 -21 23 3 3 -2 12 -12 19 -16 12 -15 13 7 14 18 0 22 -4 18 -19 -6 -23
27 -35 54 -20 27 14 82 11 107 -7 12 -8 22 -11 22 -6 0 6 -7 12 -15 16 -11 4
-14 15 -11 39 4 31 2 34 -25 34 -18 0 -29 -6 -29 -14 0 -8 -6 -13 -12 -10 -7
2 -12 10 -10 16 1 8 -4 7 -18 -1 -21 -14 -27 -28 -10 -28 6 0 10 6 11 13 0 6
4 3 8 -8 11 -26 7 -29 -18 -15 -14 7 -21 7 -21 0 0 -5 -5 -10 -11 -10 -8 0 -8
4 -2 13 6 6 13 21 16 32 6 18 6 18 -6 3 -7 -9 -20 -16 -28 -16 -42 3 -61 -3
-56 -16 3 -8 -2 -16 -14 -19 -20 -5 -26 7 -9 18 6 4 8 11 4 16 -3 6 -18 -2
-32 -16 -15 -15 -28 -22 -30 -16 -6 17 -20 13 -25 -6 -4 -17 -5 -17 -6 -1 -1
12 -6 15 -17 11 -11 -4 -12 -8 -4 -13 7 -4 -8 -7 -32 -6 -23 1 -46 -2 -49 -7
-4 -5 -12 -6 -19 -2 -9 6 -9 10 1 17 11 7 9 8 -6 5 -11 -2 -19 -9 -18 -15 2
-7 -1 -12 -7 -12 -5 0 -9 11 -8 24 2 21 7 25 33 23 16 -1 36 -8 44 -15 18 -17
27 -7 11 13 -7 8 -27 15 -44 16 -30 1 -30 1 -6 9 l25 8 -25 2 c-18 2 -20 4 -7
7 24 6 22 43 -2 43 -13 0 -21 -8 -23 -22 -2 -16 -9 -22 -20 -20 -21 3 -24 -14
-4 -21 18 -7 9 -47 -10 -47 -8 0 -14 6 -14 13 -1 7 -6 5 -14 -5 -7 -10 -18
-18 -24 -18 -6 0 -13 -6 -15 -12 -4 -10 -6 -10 -6 -1 -1 6 4 15 10 18 6 5 4
12 -8 22 -17 14 -17 14 5 10 15 -4 22 -1 19 6 -2 7 -16 12 -30 12 -29 -1 -34
25 -7 37 11 5 10 7 -5 7 -11 0 -27 -4 -35 -9 -8 -5 -10 -10 -3 -10 6 0 10 -7
9 -15 -4 -24 -10 -24 -29 1 -10 13 -13 24 -7 24 5 0 10 7 10 15 0 8 -6 12 -12
10 -14 -5 -55 22 -47 30 3 3 21 6 39 8 19 3 36 9 38 16 6 18 63 13 77 -6 12
-17 14 -17 34 1 12 11 21 23 21 28 0 11 -28 10 -32 -1 -1 -5 -12 -3 -22 5 -19
13 -18 14 12 14 39 0 42 16 5 23 -20 4 -33 1 -45 -13 -16 -20 -34 -28 -24 -11
3 4 -6 13 -20 19 -23 11 -24 10 -14 -7 14 -28 12 -38 -3 -17 -13 18 -15 17
-35 -9 -14 -18 -22 -22 -22 -13 0 25 -26 39 -83 45 -41 4 -54 9 -50 19 6 16
-13 19 -22 4 -9 -14 -22 -12 -29 5 -3 8 -2 14 2 14 25 -4 51 4 70 21 12 12 23
16 27 10 9 -15 31 -12 49 6 9 8 16 11 16 5 0 -6 5 -11 11 -11 6 0 9 6 6 14 -8
20 4 28 20 14 10 -8 17 -8 25 0 16 16 98 16 98 0 0 -6 2 -9 5 -6 14 14 -8 34
-36 32 -18 -1 -32 3 -36 12 -3 8 -9 11 -14 8 -5 -3 -7 -9 -4 -14 3 -5 0 -12
-6 -15 -6 -4 -13 2 -16 14 -5 21 -23 30 -23 11 0 -5 -7 -10 -15 -10 -8 0 -15
5 -15 10 0 7 -6 7 -19 0 -13 -7 -22 -7 -26 0 -10 16 -38 12 -32 -4 5 -11 -2
-13 -30 -10 -20 3 -40 7 -44 10 -5 3 -9 0 -9 -7 0 -7 -6 -5 -13 5 -11 15 -15
16 -19 5 -8 -21 -118 -26 -118 -5 0 19 17 30 22 14 3 -7 9 -8 19 -3 8 5 20 11
27 12 6 2 20 5 30 7 9 3 24 5 33 5 9 1 19 12 21 26 5 26 4 27 -54 27 -31 1
-38 14 -10 21 13 4 12 5 -5 6 -28 1 -37 -13 -18 -29 24 -20 19 -50 -7 -49 -17
1 -19 2 -6 6 10 2 18 8 18 13 0 5 -44 7 -97 5 -77 -4 -94 -2 -84 8 6 6 25 13
42 13 16 1 45 2 65 3 23 1 33 5 28 12 -3 6 -17 9 -31 6 -16 -3 -27 1 -34 14
-17 33 -56 22 -50 -13 2 -13 -29 -9 -43 5 -29 28 -11 45 52 46 22 1 32 6 32
17 0 10 7 14 18 12 9 -2 16 -10 14 -16 -3 -17 18 -15 24 3 5 11 23 15 73 15
46 0 62 3 51 10 -11 7 -7 10 18 10 17 0 32 -4 32 -10 0 -5 9 -10 19 -10 11 0
23 5 26 10 3 6 17 10 31 10 13 0 24 5 24 10 0 6 -38 10 -95 10 -78 0 -95 3
-95 15 0 8 -4 15 -10 15 -5 0 -10 -7 -10 -15 0 -10 -10 -15 -30 -15 -22 0 -28
4 -24 15 5 12 -3 15 -39 15 -77 0 -69 22 11 33 13 2 27 9 31 16 5 8 47 13 125
16 65 2 120 6 124 9 3 3 -4 6 -16 6 -12 0 -22 4 -22 9 0 13 144 24 375 27 327
4 332 4 310 13 -11 4 -68 7 -127 6 -60 0 -108 3 -108 7 0 6 109 13 186 11 6 0
157 -4 335 -7 178 -4 351 -9 384 -11 33 -2 67 0 75 5 9 5 19 5 27 -2 9 -8 26
-7 59 2 55 16 40 30 -25 24 -25 -3 -95 -1 -156 3 l-110 7 85 13 c159 24 773
42 1440 43 461 0 641 3 633 11 -9 9 -166 32 -368 54 -16 2 -108 6 -204 9 -95
4 -178 9 -185 13 -6 4 -42 8 -81 9 -198 7 -268 13 -277 26 -6 11 -10 10 -18
-2 -7 -12 -12 -12 -21 -3 -10 10 -17 9 -31 -4 -15 -14 -40 -16 -151 -14 -334
6 -375 14 -456 89 -8 8 -23 11 -35 7 -29 -9 -54 -9 -98 0 -35 7 -37 6 -33 -16
3 -13 -1 -27 -8 -31 -20 -13 -28 -9 -25 12 2 10 -1 19 -7 19 -5 1 -10 -7 -10
-17 0 -18 0 -18 -88 -20 -52 -2 -58 -4 -68 -28 -9 -25 -11 -26 -28 -10 -11 10
-34 16 -62 15 -24 0 -71 2 -104 6 -72 9 -163 10 -267 2 -60 -4 -79 -3 -89 9
-10 13 -14 12 -30 -2 -16 -14 -23 -15 -46 -5 -17 8 -28 9 -32 2 -7 -11 -91
-32 -101 -26 -3 2 -67 5 -141 6 -122 1 -165 9 -179 30 -3 4 -30 -1 -60 -12
-30 -10 -55 -19 -56 -19 -1 0 -4 9 -7 20 -8 30 -52 43 -82 24 -22 -15 -25 -15
-31 -1 -4 12 -11 14 -31 6 -18 -6 -30 -5 -44 5 -13 9 -35 12 -58 9 -25 -3 -47
0 -62 10 -26 16 -94 29 -103 20z m1864 -59 c0 -14 -5 -24 -11 -22 -6 2 -10 7
-10 11 1 4 1 14 1 22 0 8 5 15 10 15 6 0 10 -12 10 -26z m-1722 -321 c-10 -2
-26 -2 -35 0 -10 3 -2 5 17 5 19 0 27 -2 18 -5z m-20 -100 c-10 -2 -26 -2 -35
0 -10 3 -2 5 17 5 19 0 27 -2 18 -5z m168 -298 c-10 -8 -23 -12 -29 -8 -11 7
12 23 33 23 12 -1 11 -4 -4 -15z m-42 -75 c6 -33 6 -34 -7 -12 -7 12 -16 20
-20 16 -4 -4 -2 -13 4 -21 7 -8 8 -13 1 -13 -16 0 -23 31 -11 46 6 8 9 20 6
28 -3 8 -3 17 1 20 7 8 17 -15 26 -64z m-54 50 c0 -5 -2 -10 -4 -10 -3 0 -8 5
-11 10 -3 6 -1 10 4 10 6 0 11 -4 11 -10z m-50 -10 c0 -5 -4 -10 -10 -10 -5 0
-10 5 -10 10 0 6 5 10 10 10 6 0 10 -4 10 -10z m133 -10 c-3 -11 -7 -20 -8
-20 -1 0 -5 9 -8 20 -3 12 0 20 8 20 8 0 11 -8 8 -20z m-93 -20 c0 -5 -4 -10
-10 -10 -5 0 -10 5 -10 10 0 6 5 10 10 10 6 0 10 -4 10 -10z m150 0 c0 -5 -4
-10 -10 -10 -5 0 -10 -8 -11 -17 0 -11 -2 -13 -6 -5 -3 7 -2 19 1 27 6 17 26
20 26 5z m85 0 c3 -5 1 -10 -5 -10 -7 0 -10 -7 -6 -15 3 -8 1 -15 -4 -15 -6 0
-10 7 -10 15 0 8 -3 14 -7 14 -17 -3 -24 2 -18 11 3 6 15 10 25 10 10 0 22 -4
25 -10z m55 -20 c0 -5 -7 -10 -15 -10 -8 0 -15 5 -15 10 0 6 7 10 15 10 8 0
15 -4 15 -10z m-135 -10 c3 -5 1 -10 -4 -10 -6 0 -11 5 -11 10 0 6 2 10 4 10
3 0 8 -4 11 -10z m49 -16 c3 -9 2 -12 -5 -9 -5 4 -16 1 -24 -5 -18 -15 -20 -4
-2 15 16 19 24 18 31 -1z m-189 -4 c-3 -5 -12 -10 -18 -10 -7 0 -6 4 3 10 19
12 23 12 15 0z m238 -20 c-3 -11 -9 -20 -14 -20 -14 0 -11 28 4 33 6 3 13 6
14 6 0 1 -1 -8 -4 -19z m46 -22 c1 -5 -3 -8 -9 -8 -5 0 -10 12 -9 28 0 24 1
25 9 7 5 -11 9 -23 9 -27z m-33 -15 c-10 -10 -19 5 -10 18 6 11 8 11 12 0 2
-7 1 -15 -2 -18z m-46 2 c0 -8 -9 -15 -20 -15 -11 0 -20 -4 -20 -10 0 -5 -5
-10 -12 -10 -6 0 -3 8 7 20 10 11 22 17 26 14 5 -3 9 0 9 5 0 6 2 11 5 11 3 0
5 -7 5 -15z m23 -15 c3 -11 1 -23 -4 -26 -5 -3 -9 6 -9 20 0 31 6 34 13 6z
m82 1 c-3 -6 -14 -11 -23 -11 -13 0 -13 2 4 14 21 15 30 14 19 -3z m678 -56
c-7 -21 -13 -19 -13 6 0 11 4 18 10 14 5 -3 7 -12 3 -20z m-896 9 c-3 -3 -12
-4 -19 -1 -8 3 -5 6 6 6 11 1 17 -2 13 -5z m63 -4 c0 -5 -2 -10 -4 -10 -3 0
-8 5 -11 10 -3 6 -1 10 4 10 6 0 11 -4 11 -10z m800 -10 c0 -5 -4 -10 -10 -10
-5 0 -10 5 -10 10 0 6 5 10 10 10 6 0 10 -4 10 -10z m-596 -26 c9 -23 8 -24
-11 -24 -15 0 -16 2 -3 10 10 6 11 10 3 10 -7 0 -13 5 -13 10 0 16 17 12 24
-6z m-44 -14 c0 -5 -2 -10 -4 -10 -3 0 -8 5 -11 10 -3 6 -1 10 4 10 6 0 11 -4
11 -10z m190 0 c0 -5 -4 -10 -10 -10 -5 0 -10 5 -10 10 0 6 5 10 10 10 6 0 10
-4 10 -10z m186 -16 c-19 -13 -19 -14 8 -14 15 0 25 4 22 9 -3 5 3 11 13 14
15 3 19 0 18 -14 -1 -16 -9 -19 -58 -18 -31 1 -63 6 -70 11 -9 6 -5 7 11 3 19
-4 31 0 45 14 10 12 21 18 24 15 3 -3 -3 -12 -13 -20z m110 11 c-25 -19 -41
-19 -24 0 7 8 20 14 28 14 11 0 10 -3 -4 -14z m-546 -10 c0 -8 -2 -15 -4 -15
-2 0 -6 7 -10 15 -3 8 -1 15 4 15 6 0 10 -7 10 -15z m264 -31 c3 -8 2 -12 -4
-9 -6 3 -10 10 -10 16 0 14 7 11 14 -7z m161 -14 c-3 -5 -11 -10 -16 -10 -6 0
-7 5 -4 10 3 6 11 10 16 10 6 0 7 -4 4 -10z m49 -5 c4 -13 2 -14 -14 -5 -23
13 -26 20 -6 20 8 0 16 -7 20 -15z m56 -5 c0 -5 -4 -10 -10 -10 -5 0 -10 5
-10 10 0 6 5 10 10 10 6 0 10 -4 10 -10z m-143 -22 c-3 -8 -6 -5 -6 6 -1 11 2
17 5 13 3 -3 4 -12 1 -19z m36 -4 c-5 -13 -2 -15 17 -9 15 5 20 4 16 -4 -9
-14 -33 -14 -41 -1 -3 6 -3 15 0 20 10 16 15 12 8 -6z m121 -3 c4 -5 -7 -15
-24 -23 -16 -7 -30 -16 -30 -20 0 -5 -7 -8 -15 -8 -24 0 -17 13 18 38 35 24
43 26 51 13z m-283 -44 c-10 -9 -11 -8 -5 6 3 10 9 15 12 12 3 -3 0 -11 -7
-18z m441 -1 c17 -23 17 -24 -5 -30 -43 -11 -53 -6 -27 14 14 11 20 20 13 20
-6 0 -15 -4 -18 -10 -3 -5 -10 -10 -16 -10 -5 0 -9 5 -9 10 0 6 7 10 15 10 8
0 15 5 15 10 0 17 14 11 32 -14z m-865 -2 c-3 -3 -12 -4 -19 -1 -8 3 -5 6 6 6
11 1 17 -2 13 -5z m593 -4 c0 -5 -8 -10 -17 -10 -15 0 -16 2 -3 10 19 12 20
12 20 0z m462 -22 c-9 -9 -15 -9 -24 0 -9 9 -7 12 12 12 19 0 21 -3 12 -12z
m-543 -19 c-16 -10 -23 -4 -14 10 3 6 11 8 17 5 6 -4 5 -9 -3 -15z m116 11 c3
-5 1 -10 -4 -10 -6 0 -11 5 -11 10 0 6 2 10 4 10 3 0 8 -4 11 -10z m295 6 c0
-3 -4 -8 -10 -11 -5 -3 -10 -1 -10 4 0 6 5 11 10 11 6 0 10 -2 10 -4z m-137
-27 c-11 -12 -27 -19 -34 -17 -9 3 -3 11 16 21 40 22 43 21 18 -4z m-673 1 c0
-5 -5 -10 -11 -10 -5 0 -7 5 -4 10 3 6 8 10 11 10 2 0 4 -4 4 -10z m689 -23
c-24 -11 -65 -31 -91 -43 -27 -12 -48 -19 -48 -15 0 10 163 87 174 82 5 -2
-11 -13 -35 -24z m-371 9 c3 -4 0 -11 -7 -15 -7 -5 -11 -13 -7 -19 3 -5 -3
-12 -14 -15 -13 -3 -20 0 -20 9 0 12 -4 12 -20 4 -16 -9 -19 -8 -13 6 5 13 3
15 -7 9 -8 -5 -11 -4 -6 3 4 6 13 9 21 5 11 -4 13 -1 9 11 -5 13 0 15 25 12
18 -2 35 -7 39 -10z m147 4 c-3 -5 -10 -10 -16 -10 -5 0 -9 5 -9 10 0 6 7 10
16 10 8 0 12 -4 9 -10z m320 0 c3 -5 -1 -10 -10 -10 -9 0 -13 5 -10 10 3 6 8
10 10 10 2 0 7 -4 10 -10z m-668 -6 c-3 -3 -12 -4 -19 -1 -8 3 -5 6 6 6 11 1
17 -2 13 -5z m466 -9 c4 -8 1 -17 -5 -21 -7 -4 -8 -3 -4 4 4 7 2 12 -3 12 -6
0 -11 5 -11 10 0 15 17 12 23 -5z m-45 -9 c-13 -10 -15 -15 -6 -24 8 -8 9 -12
1 -12 -19 0 -23 29 -5 39 24 15 30 13 10 -3z m-178 -1 c0 -2 -10 -10 -22 -16
-21 -11 -22 -11 -9 4 13 16 31 23 31 12z m27 -19 c0 -8 -6 -12 -15 -8 -10 3
-13 1 -8 -6 4 -6 -3 -16 -16 -23 -13 -6 -31 -21 -40 -33 -9 -11 -19 -18 -23
-15 -3 4 2 15 12 25 10 9 18 22 18 27 0 7 26 24 71 47 0 0 1 -6 1 -14z m83 -1
c-9 -11 -9 -15 -1 -15 7 0 9 -4 6 -10 -3 -5 -14 -10 -25 -10 -10 0 -20 -7 -24
-15 -3 -8 -12 -15 -21 -15 -8 0 -15 -4 -15 -10 0 -5 -10 -10 -22 -9 -19 1 -17
4 13 17 20 9 46 31 58 49 11 18 26 33 32 33 8 0 7 -5 -1 -15z m-595 -5 c-3 -5
-11 -10 -16 -10 -6 0 -7 5 -4 10 3 6 11 10 16 10 6 0 7 -4 4 -10z m200 -9 c-3
-6 -11 -11 -17 -11 -6 0 -6 6 2 15 14 17 26 13 15 -4z m-110 -30 c8 -14 -13
-24 -33 -16 -14 5 -14 7 -2 15 19 12 27 12 35 1z m230 -11 c3 -5 1 -10 -4 -10
-6 0 -11 5 -11 10 0 6 2 10 4 10 3 0 8 -4 11 -10z m-245 -24 c0 -3 -4 -8 -10
-11 -5 -3 -10 -1 -10 4 0 6 5 11 10 11 6 0 10 -2 10 -4z m549 -17 c-17 -13
-26 -14 -31 -6 -6 9 -8 9 -8 0 0 -8 -6 -8 -24 0 -34 16 -26 22 34 23 52 0 52
0 29 -17z m-779 5 c0 -9 -44 -43 -55 -43 -5 0 -1 6 9 14 11 8 16 15 12 15 -4
0 -4 5 -1 10 7 11 35 14 35 4z m40 -14 c0 -5 -5 -10 -11 -10 -5 0 -7 5 -4 10
3 6 8 10 11 10 2 0 4 -4 4 -10z m224 -9 c7 -11 -17 -21 -49 -21 -29 0 -42 17
-18 23 31 8 62 7 67 -2z m316 -1 c12 -8 11 -10 -7 -10 -13 0 -23 5 -23 10 0
13 11 13 30 0z m110 -10 c-8 -5 -17 -7 -19 -4 -3 3 1 9 9 14 8 5 17 7 19 4 3
-3 -1 -9 -9 -14z m-408 -20 c-12 -12 -22 -27 -22 -35 0 -22 -15 -18 -17 3 -1
10 11 26 25 35 36 22 40 21 14 -3z m138 5 c-7 -8 -18 -15 -24 -15 -6 0 -2 7 8
15 25 19 32 19 16 0z m227 9 c-3 -3 -12 -4 -19 -1 -8 3 -5 6 6 6 11 1 17 -2
13 -5z m-79 -33 c25 -22 29 -33 8 -25 -8 3 -26 -2 -40 -11 -14 -9 -31 -15 -38
-12 -8 4 -6 6 5 6 30 2 19 21 -12 21 -17 0 -33 -4 -36 -10 -8 -13 -35 -13 -35
0 0 15 59 42 80 35 10 -3 21 -1 25 5 9 14 16 12 43 -9z m132 10 c0 -10 -42
-23 -49 -15 -7 6 20 24 37 24 6 0 12 -4 12 -9z m-510 -10 c0 -12 -39 -21 -45
-11 -3 5 1 11 7 13 21 9 38 8 38 -2z m-122 -32 c-12 -7 -24 -7 -35 0 -15 9
-12 10 17 10 29 0 32 -1 18 -10z m222 7 c0 -3 -4 -8 -10 -11 -5 -3 -10 -1 -10
4 0 6 5 11 10 11 6 0 10 -2 10 -4z m-140 -26 c8 -5 11 -10 5 -10 -5 0 -17 5
-25 10 -8 5 -10 10 -5 10 6 0 17 -5 25 -10z m288 -24 c-7 -8 -15 -12 -17 -11
-5 6 10 25 20 25 5 0 4 -6 -3 -14z m-258 -16 c-6 -11 -12 -20 -14 -20 -3 0 -1
23 3 38 1 1 6 2 11 2 7 0 7 -6 0 -20z m225 -8 c-3 -3 -11 0 -18 7 -9 10 -8 11
6 5 10 -3 15 -9 12 -12z m62 -18 c-3 -3 -12 -4 -19 -1 -8 3 -5 6 6 6 11 1 17
-2 13 -5z m-309 -13 c22 -13 -15 -23 -57 -14 l-36 7 35 7 c19 3 37 7 40 8 3 0
11 -3 18 -8z m-136 -32 c-13 -11 -28 -19 -34 -17 -15 5 19 38 40 38 13 0 11
-4 -6 -21z m103 -9 c3 -5 -18 -16 -47 -25 -61 -18 -58 -17 -58 -6 0 5 13 12
30 16 16 4 32 11 35 16 8 12 32 12 40 -1z m69 -35 c-7 -16 -44 -21 -44 -6 0 8
16 16 42 20 4 0 5 -6 2 -14z m-254 -49 c0 -11 -19 -15 -25 -6 -3 5 1 10 9 10
9 0 16 -2 16 -4z"/>
<path d="M685 730 c-3 -5 1 -10 9 -10 9 0 16 5 16 10 0 6 -4 10 -9 10 -6 0
-13 -4 -16 -10z"/>
<path d="M740 670 c-8 -5 -10 -10 -5 -10 6 0 17 5 25 10 8 5 11 10 5 10 -5 0
-17 -5 -25 -10z"/>
<path d="M665 520 c-3 -5 -1 -10 4 -10 6 0 11 5 11 10 0 6 -2 10 -4 10 -3 0
-8 -4 -11 -10z"/>
<path d="M3840 2011 c0 -6 -7 -11 -15 -11 -21 0 -19 -19 3 -27 9 -3 26 -14 38
-25 18 -16 23 -17 33 -4 9 10 9 20 0 40 -7 14 -16 26 -20 26 -4 0 -14 3 -23 6
-9 3 -16 1 -16 -5z"/>
<path d="M6166 1951 c-3 -5 1 -14 9 -21 13 -10 15 -9 15 9 0 21 -14 28 -24 12z"/>
<path d="M3790 1902 c0 -30 35 -60 64 -55 14 3 26 8 26 12 0 13 -24 31 -42 31
-10 0 -21 7 -24 15 -8 21 -24 19 -24 -3z"/>
<path d="M4558 1870 c-4 -27 -2 -31 16 -28 13 2 22 12 24 27 2 15 0 21 -7 17
-6 -4 -11 -2 -11 3 0 25 -18 9 -22 -19z"/>
<path d="M5277 1857 c-3 -7 3 -13 14 -14 12 -1 16 3 12 13 -6 18 -19 18 -26 1z"/>
<path d="M5325 1860 c3 -5 8 -10 11 -10 2 0 4 5 4 10 0 6 -5 10 -11 10 -5 0
-7 -4 -4 -10z"/>
<path d="M3370 1580 c-8 -5 -17 -7 -21 -4 -4 2 -10 0 -14 -6 -3 -5 0 -10 7
-11 7 0 27 -2 43 -4 96 -9 259 -17 255 -12 -4 4 -51 13 -105 22 -55 8 -111 17
-125 19 -14 3 -32 1 -40 -4z"/>
<path d="M6230 1581 c0 -5 5 -13 10 -16 6 -3 10 -2 10 4 0 5 -4 13 -10 16 -5
3 -10 2 -10 -4z"/>
<path d="M3095 1520 c-8 -13 -21 -11 135 -15 150 -4 129 8 -32 19 -61 4 -99 3
-103 -4z"/>
<path d="M3841 1525 c9 -8 74 -11 99 -4 17 5 5 7 -39 8 -35 1 -62 -1 -60 -4z"/>
<path d="M3990 1520 c8 -5 20 -10 25 -10 6 0 3 5 -5 10 -8 5 -19 10 -25 10 -5
0 -3 -5 5 -10z"/>
<path d="M170 1450 c0 -5 13 -10 29 -10 17 0 33 5 36 10 4 6 -8 10 -29 10 -20
0 -36 -4 -36 -10z"/>
<path d="M4558 1443 c-17 -4 -26 -33 -10 -33 4 0 24 -4 45 -9 45 -11 47 -7 7
14 -17 9 -28 20 -25 25 4 6 5 9 3 9 -2 -1 -11 -3 -20 -6z"/>
<path d="M1448 1433 c7 -3 16 -2 19 1 4 3 -2 6 -13 5 -11 0 -14 -3 -6 -6z"/>
<path d="M4010 1421 c0 -5 13 -9 30 -9 16 1 27 5 24 10 -7 11 -54 10 -54 -1z"/>
<path d="M458 1413 c7 -3 16 -2 19 1 4 3 -2 6 -13 5 -11 0 -14 -3 -6 -6z"/>
<path d="M344 1402 c5 -8 76 -4 76 4 0 2 -18 4 -41 4 -22 0 -38 -4 -35 -8z"/>
<path d="M335 1370 c-3 -5 1 -10 9 -10 9 0 16 5 16 10 0 6 -4 10 -9 10 -6 0
-13 -4 -16 -10z"/>
<path d="M1198 1273 c6 -2 18 -2 25 0 6 3 1 5 -13 5 -14 0 -19 -2 -12 -5z"/>
<path d="M391 1227 c-9 -12 -8 -16 3 -20 19 -7 32 11 19 24 -6 6 -14 5 -22 -4z"/>
<path d="M1100 1190 c0 -11 4 -20 9 -20 5 0 7 9 4 20 -3 11 -7 20 -9 20 -2 0
-4 -9 -4 -20z"/>
<path d="M492 1191 c2 -7 7 -12 11 -12 12 1 9 15 -3 20 -7 2 -11 -2 -8 -8z"/>
<path d="M712 1194 c-17 -8 -5 -24 13 -18 10 4 18 -3 25 -20 8 -23 13 -25 29
-16 11 5 23 15 26 20 3 6 16 11 28 11 20 1 21 2 2 6 -11 3 -25 9 -32 15 -7 5
-13 5 -17 -1 -4 -5 -2 -12 4 -16 15 -9 2 -25 -15 -18 -9 3 -14 13 -13 22 3 16
-25 25 -50 15z"/>
<path d="M904 1188 c-3 -4 6 -8 20 -8 14 0 26 4 26 9 0 11 -39 10 -46 -1z"/>
<path d="M1185 1170 c-3 -5 -1 -10 4 -10 6 0 11 5 11 10 0 6 -2 10 -4 10 -3 0
-8 -4 -11 -10z"/>
<path d="M720 1158 c-7 -47 -11 -122 -7 -118 3 3 7 23 9 45 2 22 7 46 11 52 4
6 3 14 -3 18 -5 3 -10 5 -10 3z"/>
<path d="M888 1148 c-3 -7 -6 -17 -6 -21 -1 -4 -11 -16 -23 -26 l-23 -18 22
-12 c14 -8 22 -8 22 -1 0 5 -5 10 -11 10 -5 0 -7 5 -4 10 4 6 11 8 17 4 5 -3
8 2 7 12 -2 11 0 25 5 32 4 7 6 15 3 18 -2 3 -7 -1 -9 -8z"/>
<path d="M971 1131 c-8 -5 -10 -14 -6 -21 6 -9 10 -9 16 1 8 12 11 11 19 -1 5
-8 10 -10 10 -4 0 18 -24 34 -39 25z"/>
<path d="M1090 1124 c0 -8 5 -12 10 -9 6 3 10 10 10 16 0 5 -4 9 -10 9 -5 0
-10 -7 -10 -16z"/>
<path d="M1192 1126 c7 -8 15 -12 17 -11 5 6 -10 25 -20 25 -5 0 -4 -6 3 -14z"/>
<path d="M928 1123 c-24 -6 -23 -23 2 -23 11 0 20 7 20 15 0 8 -1 14 -2 14 -2
-1 -11 -3 -20 -6z"/>
<path d="M2346 1122 c-3 -5 1 -9 9 -9 8 0 15 4 15 9 0 4 -4 8 -9 8 -6 0 -12
-4 -15 -8z"/>
<path d="M745 1111 c-3 -5 -1 -12 5 -16 5 -3 10 1 10 9 0 18 -6 21 -15 7z"/>
<path d="M1500 1116 c0 -2 7 -6 15 -10 8 -3 15 -1 15 4 0 6 -7 10 -15 10 -8 0
-15 -2 -15 -4z"/>
<path d="M680 1081 c0 -17 2 -31 4 -31 8 0 13 51 5 56 -5 3 -9 -9 -9 -25z"/>
<path d="M1035 1100 c-3 -5 -1 -10 4 -10 6 0 11 5 11 10 0 6 -2 10 -4 10 -3 0
-8 -4 -11 -10z"/>
<path d="M1558 1103 c7 -3 16 -2 19 1 4 3 -2 6 -13 5 -11 0 -14 -3 -6 -6z"/>
<path d="M1778 1103 c7 -3 16 -2 19 1 4 3 -2 6 -13 5 -11 0 -14 -3 -6 -6z"/>
<path d="M2268 1103 c7 -3 16 -2 19 1 4 3 -2 6 -13 5 -11 0 -14 -3 -6 -6z"/>
<path d="M1448 1093 c7 -3 16 -2 19 1 4 3 -2 6 -13 5 -11 0 -14 -3 -6 -6z"/>
<path d="M1410 1079 c0 -5 7 -9 15 -9 8 0 15 -4 15 -10 0 -5 7 -10 15 -10 25
0 17 15 -15 27 -16 6 -30 7 -30 2z"/>
<path d="M803 1073 c-16 -6 -17 -33 -2 -33 5 0 7 5 4 10 -3 6 0 10 9 10 8 0
16 -6 19 -12 2 -7 8 -10 12 -6 6 6 -18 39 -27 37 -2 0 -9 -3 -15 -6z"/>
<path d="M936 1063 c-4 -9 -3 -19 0 -22 4 -3 9 0 11 7 3 6 9 10 14 6 5 -3 9
-1 9 4 0 17 -28 21 -34 5z"/>
<path d="M1305 1070 c3 -5 1 -19 -5 -30 -7 -13 -7 -20 0 -20 5 0 10 5 10 10 0
6 13 10 29 10 26 0 50 24 36 38 -2 3 -7 -3 -11 -12 -8 -20 -34 -21 -34 -1 0 8
-7 15 -16 15 -8 0 -12 -4 -9 -10z"/>
<path d="M1833 1065 c0 -8 4 -12 9 -9 4 3 8 9 8 15 0 5 -4 9 -8 9 -5 0 -9 -7
-9 -15z"/>
<path d="M640 1056 c0 -8 -6 -16 -12 -19 -7 -2 -2 -4 12 -4 18 0 26 5 27 18 1
11 -5 19 -13 19 -8 0 -14 -6 -14 -14z"/>
<path d="M991 1054 c0 -11 3 -14 6 -6 3 7 2 16 -1 19 -3 4 -6 -2 -5 -13z"/>
<path d="M1260 1061 c0 -5 7 -12 16 -15 14 -5 15 -4 4 9 -14 17 -20 19 -20 6z"/>
<path d="M4421 1038 c1 -22 3 -26 6 -13 3 11 10 26 15 33 8 9 6 12 -6 12 -12
0 -16 -9 -15 -32z"/>
<path d="M1056 1043 c-6 -14 -5 -15 5 -6 7 7 10 15 7 18 -3 3 -9 -2 -12 -12z"/>
<path d="M1685 1050 c3 -5 14 -10 23 -10 15 0 15 2 2 10 -20 13 -33 13 -25 0z"/>
<path d="M1780 1056 c0 -2 7 -7 16 -10 8 -3 12 -2 9 4 -6 10 -25 14 -25 6z"/>
<path d="M1386 1041 c-4 -7 -5 -15 -2 -18 9 -9 19 4 14 18 -4 11 -6 11 -12 0z"/>
<path d="M1955 1040 c-3 -6 1 -7 9 -4 18 7 21 14 7 14 -6 0 -13 -4 -16 -10z"/>
<path d="M1462 1027 c-7 -8 -6 -18 5 -32 15 -19 15 -19 8 4 -5 16 -4 21 4 17
7 -5 9 -1 5 8 -7 19 -9 19 -22 3z"/>
<path d="M1513 1019 c8 -14 14 -15 20 -6 5 7 6 2 2 -12 -6 -21 -4 -23 14 -18
13 3 24 -1 30 -10 6 -11 10 -12 15 -4 4 6 15 11 25 11 10 0 18 7 18 15 0 8 -9
15 -19 15 -11 0 -17 -4 -14 -9 3 -5 -1 -11 -9 -15 -8 -3 -15 -1 -15 4 0 6 -7
10 -15 10 -8 0 -15 5 -15 11 0 5 5 7 11 3 7 -4 10 -1 7 7 -2 7 -18 14 -35 15
-28 1 -30 -1 -20 -17z"/>
<path d="M921 1014 c-18 -21 -6 -30 14 -11 8 9 15 18 15 21 0 11 -15 5 -29
-10z"/>
<path d="M1239 1021 c11 -7 10 -11 -5 -20 -17 -10 -17 -11 6 -12 14 -1 33 -2
43 -1 20 2 22 -9 5 -27 -11 -11 -9 -11 10 -2 12 6 22 19 22 28 0 12 -7 14 -31
9 -26 -5 -29 -4 -20 8 9 11 8 15 -5 20 -24 9 -41 7 -25 -3z"/>
<path d="M2150 1020 c-13 -8 -13 -10 -1 -10 8 0 22 -6 30 -14 14 -13 16 -12
17 12 1 15 -1 21 -3 14 -3 -9 -9 -10 -17 -3 -7 6 -17 6 -26 1z"/>
<path d="M2026 1012 c-3 -6 -1 -14 5 -17 14 -9 20 -2 10 14 -6 8 -11 9 -15 3z"/>
<path d="M830 996 c4 -4 16 -4 26 2 16 9 14 10 -8 9 -15 -1 -23 -6 -18 -11z"/>
<path d="M1414 990 c1 -14 6 -24 9 -22 4 1 12 2 17 2 6 0 10 5 10 11 0 5 -4 8
-9 4 -6 -3 -14 3 -20 12 -9 16 -10 14 -7 -7z"/>
<path d="M1665 1001 l20 -8 -20 -5 c-19 -5 -19 -6 1 -7 12 0 35 6 50 14 16 8
22 15 14 15 -9 0 -21 -5 -27 -11 -8 -8 -13 -8 -17 0 -4 6 -15 11 -24 10 -14 0
-13 -2 3 -8z"/>
<path d="M1783 1003 c-7 -3 -13 -9 -13 -15 0 -6 7 -8 15 -4 8 3 15 1 15 -4 0
-14 12 -12 34 5 11 8 17 18 13 21 -4 4 -13 2 -20 -4 -8 -7 -18 -8 -23 -3 -5 5
-15 6 -21 4z"/>
<path d="M1886 994 c-9 -23 -4 -24 17 -2 13 14 14 18 3 18 -8 0 -17 -7 -20
-16z"/>
<path d="M2445 1000 c-3 -5 -1 -10 4 -10 6 0 11 5 11 10 0 6 -2 10 -4 10 -3 0
-8 -4 -11 -10z"/>
<path d="M1496 992 c-3 -6 -1 -14 5 -17 14 -9 20 -2 10 14 -6 8 -11 9 -15 3z"/>
<path d="M2108 993 c7 -3 16 -2 19 1 4 3 -2 6 -13 5 -11 0 -14 -3 -6 -6z"/>
<path d="M4395 990 c3 -5 8 -10 11 -10 2 0 4 5 4 10 0 6 -5 10 -11 10 -5 0 -7
-4 -4 -10z"/>
<path d="M1340 982 c0 -5 7 -13 16 -16 10 -4 14 -1 12 6 -5 15 -28 23 -28 10z"/>
<path d="M1950 978 c0 -4 4 -8 9 -8 6 0 12 4 15 8 3 5 -1 9 -9 9 -8 0 -15 -4
-15 -9z"/>
<path d="M1487 959 c7 -7 15 -10 18 -7 3 3 -2 9 -12 12 -14 6 -15 5 -6 -5z"/>
<path d="M1680 960 c-8 -5 -12 -11 -9 -14 2 -3 11 -1 19 4 8 5 12 11 9 14 -2
3 -11 1 -19 -4z"/>
<path d="M1825 959 c-4 -6 -4 -13 -1 -16 3 -4 6 -1 6 6 0 7 5 9 12 5 7 -4 8
-3 4 4 -9 15 -13 15 -21 1z"/>
<path d="M1596 951 c-4 -5 -3 -16 0 -25 7 -17 -36 -33 -58 -20 -8 4 -9 4 -3
-3 17 -16 65 -33 65 -23 0 6 -5 10 -12 10 -6 0 -4 6 7 13 10 8 15 19 11 25 -4
7 -2 12 3 12 6 0 11 5 11 10 0 12 -17 13 -24 1z"/>
<path d="M1761 947 c-1 -10 -8 -20 -16 -23 -8 -4 -15 -11 -15 -17 0 -6 10 -2
21 10 12 11 19 27 16 34 -4 10 -6 8 -6 -4z"/>
<path d="M1783 927 c3 -23 1 -38 -6 -41 -7 -2 -7 -5 -2 -5 6 0 17 4 25 9 12 8
12 12 2 18 -7 5 -10 16 -7 24 4 9 1 19 -6 24 -9 5 -11 -2 -6 -29z"/>
<path d="M1870 945 c0 -8 2 -15 4 -15 2 0 6 7 10 15 3 8 1 15 -4 15 -6 0 -10
-7 -10 -15z"/>
<path d="M3701 944 c0 -11 3 -14 6 -6 3 7 2 16 -1 19 -3 4 -6 -2 -5 -13z"/>
<path d="M5395 950 c3 -5 8 -10 11 -10 2 0 4 5 4 10 0 6 -5 10 -11 10 -5 0 -7
-4 -4 -10z"/>
<path d="M1460 940 c0 -5 5 -10 10 -10 6 0 10 -5 10 -11 0 -6 -9 -9 -20 -6
-24 6 -27 -8 -4 -17 22 -8 22 -8 33 12 7 14 5 21 -10 30 -11 7 -19 8 -19 2z"/>
<path d="M3430 940 c0 -5 5 -10 10 -10 6 0 10 5 10 10 0 6 -4 10 -10 10 -5 0
-10 -4 -10 -10z"/>
<path d="M1316 925 c-9 -26 -7 -32 5 -12 6 10 9 21 6 23 -2 3 -7 -2 -11 -11z"/>
<path d="M1530 930 c0 -5 5 -10 11 -10 5 0 7 5 4 10 -3 6 -8 10 -11 10 -2 0
-4 -4 -4 -10z"/>
<path d="M3611 924 c0 -11 3 -14 6 -6 3 7 2 16 -1 19 -3 4 -6 -2 -5 -13z"/>
<path d="M1275 920 c4 -6 11 -8 16 -5 14 9 11 15 -7 15 -8 0 -12 -5 -9 -10z"/>
<path d="M1655 921 c-3 -6 -10 -9 -15 -6 -5 3 -11 1 -15 -5 -3 -5 3 -10 14
-10 20 0 38 17 28 26 -3 3 -8 0 -12 -5z"/>
<path d="M1680 920 c0 -5 5 -10 11 -10 5 0 7 5 4 10 -3 6 -8 10 -11 10 -2 0
-4 -4 -4 -10z"/>
<path d="M4050 909 c0 -5 5 -7 10 -4 6 3 10 8 10 11 0 2 -4 4 -10 4 -5 0 -10
-5 -10 -11z"/>
<path d="M4110 910 c0 -5 5 -10 11 -10 5 0 7 5 4 10 -3 6 -8 10 -11 10 -2 0
-4 -4 -4 -10z"/>
<path d="M1365 900 c-3 -5 -2 -10 4 -10 5 0 13 5 16 10 3 6 2 10 -4 10 -5 0
-13 -4 -16 -10z"/>
<path d="M1936 895 c-3 -8 -1 -15 4 -15 6 0 10 7 10 15 0 8 -2 15 -4 15 -2 0
-6 -7 -10 -15z"/>
<path d="M2090 896 c7 -7 3 -14 -11 -22 -14 -7 -18 -14 -10 -18 6 -4 11 -2 11
3 0 6 6 11 14 11 11 0 26 20 26 34 0 1 -9 2 -20 2 -13 0 -16 -4 -10 -10z"/>
<path d="M3315 894 c-16 -8 -22 -12 -11 -9 10 3 24 1 30 -4 8 -7 12 -4 12 10
0 10 0 19 -1 19 0 -1 -13 -8 -30 -16z"/>
<path d="M1850 895 c0 -25 18 -37 36 -26 16 9 11 13 -12 10 -4 0 -11 5 -15 13
-5 7 -9 9 -9 3z"/>
<path d="M1975 890 c-3 -5 -1 -10 4 -10 6 0 11 5 11 10 0 6 -2 10 -4 10 -3 0
-8 -4 -11 -10z"/>
<path d="M3915 890 c-3 -5 1 -10 9 -10 9 0 16 5 16 10 0 6 -4 10 -9 10 -6 0
-13 -4 -16 -10z"/>
<path d="M4067 886 c-3 -8 1 -17 9 -20 10 -4 12 -2 8 6 -5 8 -2 9 11 4 15 -5
16 -4 5 9 -16 19 -26 19 -33 1z"/>
<path d="M1680 879 c0 -7 11 -9 30 -5 22 4 30 2 30 -9 0 -8 4 -15 9 -15 6 0 9
9 8 20 -1 16 -8 20 -39 20 -22 0 -38 -5 -38 -11z"/>
<path d="M3975 880 c3 -5 11 -10 16 -10 6 0 7 5 4 10 -3 6 -11 10 -16 10 -6 0
-7 -4 -4 -10z"/>
<path d="M1386 863 c10 -11 18 -11 34 -3 16 9 18 8 14 -5 -4 -8 -1 -15 5 -15
6 0 11 6 11 14 0 8 8 16 18 18 9 3 -8 4 -40 4 -48 1 -54 -1 -42 -13z"/>
<path d="M1660 860 c0 -5 7 -10 16 -10 8 0 12 5 9 10 -3 6 -10 10 -16 10 -5 0
-9 -4 -9 -10z"/>
<path d="M1797 859 c8 -8 16 -8 30 0 16 9 14 10 -11 11 -22 0 -27 -3 -19 -11z"/>
<path d="M1910 854 c0 -8 5 -12 10 -9 6 4 8 11 5 16 -9 14 -15 11 -15 -7z"/>
<path d="M4009 865 c-1 -3 -2 -10 -3 -15 0 -6 -8 -15 -16 -20 -12 -8 -11 -10
8 -10 17 0 22 6 22 25 0 22 -8 35 -11 20z"/>
<path d="M1593 853 c4 -3 5 -9 1 -14 -3 -5 4 -9 15 -9 12 0 21 5 21 10 0 6 -4
10 -9 10 -5 0 -15 2 -23 3 -7 2 -10 2 -5 0z"/>
<path d="M4047 853 c-4 -3 -7 -11 -7 -17 0 -6 5 -5 12 2 6 6 9 14 7 17 -3 3
-9 2 -12 -2z"/>
<path d="M3581 834 c0 -11 3 -14 6 -6 3 7 2 16 -1 19 -3 4 -6 -2 -5 -13z"/>
<path d="M1513 833 c-12 -2 -27 -10 -33 -18 -9 -11 -6 -13 15 -11 15 2 30 7
33 13 4 5 14 13 22 16 13 5 13 5 0 5 -8 0 -25 -3 -37 -5z"/>
<path d="M1740 829 c0 -5 5 -7 10 -4 6 3 10 8 10 11 0 2 -4 4 -10 4 -5 0 -10
-5 -10 -11z"/>
<path d="M3390 830 c-13 -8 -12 -10 3 -10 9 0 17 5 17 10 0 12 -1 12 -20 0z"/>
<path d="M3728 833 c7 -3 16 -2 19 1 4 3 -2 6 -13 5 -11 0 -14 -3 -6 -6z"/>
<path d="M1530 795 c-8 -9 -8 -15 -2 -15 12 0 26 19 19 26 -2 2 -10 -2 -17
-11z"/>
<path d="M1730 800 c-9 -6 -10 -10 -3 -10 6 0 15 5 18 10 8 12 4 12 -15 0z"/>
<path d="M3250 800 c0 -5 7 -7 15 -4 8 4 15 8 15 10 0 2 -7 4 -15 4 -8 0 -15
-4 -15 -10z"/>
<path d="M3905 800 c4 -6 11 -8 16 -5 14 9 11 15 -7 15 -8 0 -12 -5 -9 -10z"/>
<path d="M1590 790 c-13 -9 -13 -10 0 -10 8 0 22 5 30 10 13 9 13 10 0 10 -8
0 -22 -5 -30 -10z"/>
<path d="M1670 785 c0 -8 4 -15 8 -15 5 0 9 7 9 15 0 8 -4 15 -9 15 -4 0 -8
-7 -8 -15z"/>
<path d="M1805 790 c-3 -5 -2 -10 4 -10 5 0 13 5 16 10 3 6 2 10 -4 10 -5 0
-13 -4 -16 -10z"/>
<path d="M3625 790 c-3 -5 -2 -10 4 -10 5 0 13 5 16 10 3 6 2 10 -4 10 -5 0
-13 -4 -16 -10z"/>
<path d="M3785 790 c-3 -5 -1 -10 4 -10 6 0 11 5 11 10 0 6 -2 10 -4 10 -3 0
-8 -4 -11 -10z"/>
<path d="M1463 766 c-23 -12 -44 -27 -47 -33 -8 -20 34 -16 77 7 42 23 47 24
47 11 0 -5 -15 -15 -32 -21 -25 -10 -28 -14 -16 -17 10 -3 25 3 34 11 8 9 25
17 37 17 18 1 19 2 4 6 -15 4 -16 7 -5 20 11 14 10 15 -16 9 -16 -4 -32 -3
-35 2 -3 5 -25 -1 -48 -12z m47 0 c0 -3 -14 -12 -32 -20 -31 -16 -31 -16 -13
4 16 18 45 28 45 16z"/>
<path d="M5470 780 c0 -5 7 -7 15 -4 8 4 15 8 15 10 0 2 -7 4 -15 4 -8 0 -15
-4 -15 -10z"/>
<path d="M1407 766 c-8 -8 -23 -15 -33 -15 -33 -1 -59 -7 -61 -14 -8 -20 -2
-29 15 -22 9 4 22 8 29 8 7 0 10 4 7 9 -3 4 5 8 18 8 28 0 83 39 56 40 -9 0
-23 -7 -31 -14z"/>
<path d="M3038 773 c7 -3 16 -2 19 1 4 3 -2 6 -13 5 -11 0 -14 -3 -6 -6z"/>
<path d="M3834 766 c-3 -9 -16 -16 -28 -16 -20 -1 -56 -21 -56 -33 0 -5 13 -4
63 6 13 2 40 48 32 55 -2 3 -7 -3 -11 -12z"/>
<path d="M1590 759 c0 -5 5 -7 10 -4 6 3 10 8 10 11 0 2 -4 4 -10 4 -5 0 -10
-5 -10 -11z"/>
<path d="M3395 750 c3 -5 8 -10 11 -10 2 0 4 5 4 10 0 6 -5 10 -11 10 -5 0 -7
-4 -4 -10z"/>
<path d="M3355 740 c-3 -5 -1 -10 4 -10 6 0 11 5 11 10 0 6 -2 10 -4 10 -3 0
-8 -4 -11 -10z"/>
<path d="M3590 740 c-13 -8 -12 -10 3 -10 9 0 17 5 17 10 0 12 -1 12 -20 0z"/>
<path d="M3665 730 c-3 -6 1 -7 9 -4 18 7 21 14 7 14 -6 0 -13 -4 -16 -10z"/>
<path d="M3250 720 c8 -5 20 -10 25 -10 6 0 3 5 -5 10 -8 5 -19 10 -25 10 -5
0 -3 -5 5 -10z"/>
<path d="M1535 710 c-3 -5 -1 -10 4 -10 6 0 11 5 11 10 0 6 -2 10 -4 10 -3 0
-8 -4 -11 -10z"/>
<path d="M2970 709 c0 -5 5 -7 10 -4 6 3 10 8 10 11 0 2 -4 4 -10 4 -5 0 -10
-5 -10 -11z"/>
<path d="M3208 713 c7 -3 16 -2 19 1 4 3 -2 6 -13 5 -11 0 -14 -3 -6 -6z"/>
<path d="M3510 709 c0 -5 5 -7 10 -4 6 3 10 8 10 11 0 2 -4 4 -10 4 -5 0 -10
-5 -10 -11z"/>
<path d="M1365 701 c-3 -5 -1 -12 5 -16 5 -3 10 1 10 9 0 18 -6 21 -15 7z"/>
<path d="M1170 678 c-35 -21 -28 -38 9 -19 14 8 20 8 23 -1 3 -7 7 -8 10 -3 3
6 3 18 -1 27 -6 16 -9 16 -41 -4z"/>
<path d="M3192 684 c-7 -8 -8 -14 -3 -14 10 0 25 19 20 25 -2 1 -10 -3 -17
-11z"/>
<path d="M3677 677 c-22 -22 -16 -33 11 -18 11 6 22 7 26 4 3 -3 6 -3 6 1 0 4
-6 13 -12 20 -10 9 -17 8 -31 -7z"/>
<path d="M2846 681 c-11 -4 -15 -10 -10 -13 5 -4 18 0 29 8 20 15 12 17 -19 5z"/>
<path d="M3316 674 c-5 -14 -4 -15 9 -4 17 14 19 20 6 20 -5 0 -12 -7 -15 -16z"/>
<path d="M3470 680 c0 -5 7 -10 15 -10 8 0 15 5 15 10 0 6 -7 10 -15 10 -8 0
-15 -4 -15 -10z"/>
<path d="M2895 669 c-4 -6 -5 -12 -2 -15 2 -3 7 2 10 11 7 17 1 20 -8 4z"/>
<path d="M3350 669 c0 -5 5 -7 10 -4 6 3 10 8 10 11 0 2 -4 4 -10 4 -5 0 -10
-5 -10 -11z"/>
<path d="M1022 661 c-11 -7 -11 -9 2 -14 9 -4 16 -2 16 3 0 5 8 7 18 4 14 -5
15 -4 2 5 -18 13 -21 13 -38 2z"/>
<path d="M1242 650 c-25 -9 -52 -29 -65 -48 -12 -18 -32 -35 -44 -38 -13 -3
-23 -12 -23 -20 0 -19 2 -18 36 11 16 14 37 25 47 25 9 0 17 5 17 11 0 5 -5 7
-11 3 -7 -4 -10 -1 -7 7 2 7 23 18 46 24 42 10 70 29 55 37 -4 3 -27 -3 -51
-12z"/>
<path d="M2634 662 c-9 -5 -8 -11 2 -20 8 -7 14 -8 14 -3 0 6 6 8 14 5 8 -3
17 -1 21 5 3 6 2 11 -4 11 -5 0 -15 2 -23 5 -7 3 -18 1 -24 -3z"/>
<path d="M1315 650 c-3 -5 1 -10 9 -10 9 0 16 5 16 10 0 6 -4 10 -9 10 -6 0
-13 -4 -16 -10z"/>
<path d="M2345 650 c-8 -13 5 -13 25 0 13 8 13 10 -2 10 -9 0 -20 -4 -23 -10z"/>
<path d="M2590 650 c0 -5 5 -10 10 -10 6 0 10 5 10 10 0 6 -4 10 -10 10 -5 0
-10 -4 -10 -10z"/>
<path d="M2788 653 c7 -3 16 -2 19 1 4 3 -2 6 -13 5 -11 0 -14 -3 -6 -6z"/>
<path d="M3050 640 c-12 -8 -10 -10 8 -10 13 0 20 4 17 10 -7 12 -6 12 -25 0z"/>
<path d="M3330 646 c0 -2 7 -7 16 -10 8 -3 12 -2 9 4 -6 10 -25 14 -25 6z"/>
<path d="M3370 640 c0 -5 5 -10 10 -10 6 0 10 5 10 10 0 6 -4 10 -10 10 -5 0
-10 -4 -10 -10z"/>
<path d="M3985 641 c-3 -5 -1 -12 4 -15 5 -3 11 1 15 9 6 16 -9 21 -19 6z"/>
<path d="M1120 600 c-30 -26 -31 -30 -13 -30 21 0 36 13 46 43 8 22 9 22 -33
-13z"/>
<path d="M2685 610 c-10 -11 -15 -20 -11 -20 14 0 46 21 46 30 0 16 -16 11
-35 -10z"/>
<path d="M3085 620 c-3 -5 3 -10 14 -10 11 0 23 5 26 10 3 6 -3 10 -14 10 -11
0 -23 -4 -26 -10z"/>
<path d="M3280 623 c1 -20 20 -37 29 -28 7 7 4 14 -9 23 -11 7 -20 9 -20 5z"/>
<path d="M3550 620 c0 -5 4 -10 9 -10 6 0 13 5 16 10 3 6 -1 10 -9 10 -9 0
-16 -4 -16 -10z"/>
<path d="M2620 610 c0 -5 5 -10 11 -10 5 0 7 5 4 10 -3 6 -8 10 -11 10 -2 0
-4 -4 -4 -10z"/>
<path d="M2970 604 c0 -8 5 -12 10 -9 6 3 10 10 10 16 0 5 -4 9 -10 9 -5 0
-10 -7 -10 -16z"/>
<path d="M3025 610 c-3 -5 -1 -10 4 -10 6 0 11 5 11 10 0 6 -2 10 -4 10 -3 0
-8 -4 -11 -10z"/>
<path d="M3237 609 c-17 -10 -23 -29 -9 -29 5 0 16 6 27 13 22 17 7 29 -18 16z"/>
<path d="M2088 603 c-33 -5 -37 -19 -8 -28 21 -7 60 10 60 25 0 10 -3 10 -52
3z"/>
<path d="M3124 595 c-15 -11 -16 -14 -4 -15 21 0 44 16 33 23 -6 4 -19 0 -29
-8z"/>
<path d="M3339 583 c-13 -16 -12 -17 4 -4 16 13 21 21 13 21 -2 0 -10 -8 -17
-17z"/>
<path d="M3464 585 c-10 -8 -14 -14 -9 -15 15 0 40 18 34 24 -3 3 -14 -1 -25
-9z"/>
<path d="M3708 593 c7 -3 16 -2 19 1 4 3 -2 6 -13 5 -11 0 -14 -3 -6 -6z"/>
<path d="M1498 583 c7 -3 16 -2 19 1 4 3 -2 6 -13 5 -11 0 -14 -3 -6 -6z"/>
<path d="M2585 575 c-16 -7 -35 -11 -42 -8 -7 3 -13 0 -13 -7 0 -15 59 -3 80
16 17 17 14 17 -25 -1z"/>
<path d="M3056 581 c-4 -7 -5 -15 -2 -18 9 -9 19 4 14 18 -4 11 -6 11 -12 0z"/>
<path d="M2680 565 c-10 -12 -9 -15 4 -15 10 0 15 4 12 9 -4 5 0 12 6 14 8 4
9 6 2 6 -6 1 -17 -6 -24 -14z"/>
<path d="M2320 559 c0 -5 5 -7 10 -4 6 3 10 8 10 11 0 2 -4 4 -10 4 -5 0 -10
-5 -10 -11z"/>
<path d="M3264 559 c-9 -15 12 -17 30 -4 17 13 17 14 -4 12 -12 -1 -24 -5 -26
-8z"/>
<path d="M3437 553 c-4 -3 -7 -11 -7 -17 0 -6 5 -5 12 2 6 6 9 14 7 17 -3 3
-9 2 -12 -2z"/>
<path d="M3358 515 c-42 -39 -47 -47 -20 -38 29 11 57 37 58 56 1 9 1 17 0 17
0 0 -18 -16 -38 -35z"/>
<path d="M2399 508 c-17 -23 -41 -24 -32 -2 5 13 2 15 -18 8 -13 -4 -34 -8
-47 -7 -13 1 -21 -4 -19 -11 2 -6 20 -10 41 -9 22 2 34 -1 31 -7 -7 -11 42 5
60 20 5 4 19 10 30 12 17 3 16 5 -6 9 -19 4 -31 0 -40 -13z"/>
<path d="M2605 520 c-3 -5 3 -10 14 -10 11 0 23 5 26 10 3 6 -3 10 -14 10 -11
0 -23 -4 -26 -10z"/>
<path d="M2920 515 c-11 -13 -10 -14 4 -9 9 3 16 10 16 15 0 13 -6 11 -20 -6z"/>
<path d="M3108 512 c-12 -16 -11 -16 6 -2 18 14 19 13 13 -2 -4 -12 -2 -15 9
-11 18 7 18 19 0 26 -8 3 -20 -2 -28 -11z"/>
<path d="M2167 513 c-4 -3 -7 -11 -7 -17 0 -6 5 -5 12 2 6 6 9 14 7 17 -3 3
-9 2 -12 -2z"/>
<path d="M2730 511 c0 -5 9 -7 20 -4 11 3 20 7 20 9 0 2 -9 4 -20 4 -11 0 -20
-4 -20 -9z"/>
<path d="M917 503 c-32 -3 -45 -8 -41 -15 5 -7 1 -9 -9 -5 -9 3 -19 1 -23 -5
-5 -7 2 -9 22 -4 16 3 46 9 67 13 20 3 37 10 37 14 0 5 -1 8 -2 7 -2 -1 -24
-3 -51 -5z"/>
<path d="M1800 500 c-13 -8 -12 -10 3 -10 9 0 17 5 17 10 0 12 -1 12 -20 0z"/>
<path d="M2110 500 c0 -5 5 -10 10 -10 6 0 10 5 10 10 0 6 -4 10 -10 10 -5 0
-10 -4 -10 -10z"/>
<path d="M2780 500 c0 -5 -6 -10 -14 -10 -18 0 -76 -48 -76 -62 0 -6 15 3 34
20 19 17 44 33 55 37 21 6 29 25 11 25 -5 0 -10 -4 -10 -10z"/>
<path d="M5395 500 c3 -5 8 -10 11 -10 2 0 4 5 4 10 0 6 -5 10 -11 10 -5 0 -7
-4 -4 -10z"/>
<path d="M2985 464 c-18 -28 -16 -38 8 -29 15 6 30 55 17 55 -4 0 -15 -12 -25
-26z"/>
<path d="M3133 483 c-7 -2 -13 -9 -13 -14 0 -14 26 -10 40 6 10 12 10 15 -1
14 -8 0 -20 -3 -26 -6z"/>
<path d="M3270 457 c0 -18 -5 -27 -16 -27 -10 0 -14 6 -11 14 4 10 1 13 -8 10
-12 -5 -29 -33 -23 -40 2 -1 16 0 31 3 32 6 55 39 38 56 -8 8 -11 4 -11 -16z"/>
<path d="M2528 454 c-30 -16 -35 -24 -15 -24 14 1 52 28 46 34 -2 2 -16 -2
-31 -10z"/>
<path d="M2797 456 c-4 -10 -1 -13 9 -9 7 3 14 9 14 14 0 14 -17 10 -23 -5z"/>
<path d="M2910 445 c-35 -37 -14 -44 23 -7 22 22 27 32 16 32 -9 0 -26 -11
-39 -25z"/>
<path d="M1948 453 c-21 -5 -24 -23 -5 -23 7 0 22 7 33 15 20 15 9 18 -28 8z"/>
<path d="M2629 434 c-10 -13 -10 -17 1 -24 18 -11 30 -3 30 21 0 23 -13 25
-31 3z"/>
<path d="M3046 434 c-9 -8 -16 -21 -15 -27 0 -9 2 -8 6 1 2 6 11 12 18 12 17
0 28 17 16 24 -5 4 -17 -1 -25 -10z"/>
<path d="M2153 424 c0 -8 6 -14 14 -14 7 0 13 4 13 9 0 5 -6 11 -13 14 -8 3
-14 -1 -14 -9z"/>
<path d="M2395 430 c3 -5 8 -10 11 -10 2 0 4 5 4 10 0 6 -5 10 -11 10 -5 0 -7
-4 -4 -10z"/>
<path d="M2090 420 c-18 -12 -2 -12 25 0 13 6 15 9 5 9 -8 0 -22 -4 -30 -9z"/>
<path d="M2258 423 c-33 -8 -18 -19 20 -16 l37 4 -30 -17 c-18 -11 -25 -19
-17 -22 10 -3 62 40 62 52 0 4 -52 4 -72 -1z"/>
<path d="M3280 412 l-22 -18 28 2 c43 2 44 3 44 19 0 20 -23 19 -50 -3z"/>
<path d="M2790 410 c0 -5 5 -10 10 -10 6 0 10 5 10 10 0 6 -4 10 -10 10 -5 0
-10 -4 -10 -10z"/>
<path d="M3160 405 c-7 -8 -21 -15 -31 -15 -29 0 -30 -16 -2 -18 25 -2 63 22
63 40 0 13 -16 9 -30 -7z"/>
<path d="M2040 400 c0 -5 7 -7 15 -4 8 4 15 8 15 10 0 2 -7 4 -15 4 -8 0 -15
-4 -15 -10z"/>
<path d="M2380 400 c-9 -6 -10 -10 -3 -10 6 0 15 5 18 10 8 12 4 12 -15 0z"/>
<path d="M2686 400 c-22 -4 -29 -11 -32 -32 -4 -37 27 -38 50 -2 22 33 18 41
-18 34z"/>
<path d="M703 390 c-13 -5 -23 -12 -23 -15 0 -9 16 -5 36 10 22 16 19 18 -13
5z"/>
<path d="M2455 391 c3 -5 1 -12 -5 -16 -6 -4 -8 -11 -5 -16 4 -5 -3 -9 -13 -9
-11 0 -23 -7 -26 -16 -5 -13 -1 -15 21 -9 40 10 58 26 41 37 -10 8 -10 11 0
15 17 7 15 23 -4 23 -8 0 -13 -4 -9 -9z"/>
<path d="M600 374 l-25 -15 25 7 c28 7 35 12 29 18 -2 2 -15 -2 -29 -10z"/>
<path d="M1480 380 c0 -5 7 -10 15 -10 8 0 15 5 15 10 0 6 -7 10 -15 10 -8 0
-15 -4 -15 -10z"/>
<path d="M2120 380 c0 -5 7 -7 15 -4 8 4 15 8 15 10 0 2 -7 4 -15 4 -8 0 -15
-4 -15 -10z"/>
<path d="M2296 359 c-21 -16 -35 -29 -30 -29 5 0 2 -5 -6 -10 -12 -8 -11 -10
6 -10 11 0 25 5 32 12 7 7 12 8 12 3 0 -6 5 -3 10 5 7 10 10 11 10 2 0 -8 8
-10 28 -6 26 7 27 6 10 -13 -25 -28 -22 -43 8 -43 22 0 25 2 14 15 -7 8 -8 15
-3 15 5 0 10 14 10 31 0 29 -2 30 -34 24 -37 -7 -42 1 -15 21 14 11 14 13 2
13 -8 0 -33 -14 -54 -30z"/>
<path d="M648 373 c7 -3 16 -2 19 1 4 3 -2 6 -13 5 -11 0 -14 -3 -6 -6z"/>
<path d="M2525 369 c-4 -6 -5 -12 -2 -15 7 -7 37 7 37 17 0 13 -27 11 -35 -2z"/>
<path d="M2740 349 c0 -5 5 -7 10 -4 6 3 10 8 10 11 0 2 -4 4 -10 4 -5 0 -10
-5 -10 -11z"/>
<path d="M1925 331 c-3 -10 -15 -21 -27 -25 -12 -3 -19 -8 -16 -11 3 -4 20 0
36 9 33 17 50 46 27 46 -7 0 -16 -9 -20 -19z"/>
<path d="M675 320 c-13 -6 -15 -9 -5 -9 8 0 22 4 30 9 18 12 2 12 -25 0z"/>
<path d="M1620 320 c-13 -9 -13 -10 0 -10 8 0 22 5 30 10 13 9 13 10 0 10 -8
0 -22 -5 -30 -10z"/>
<path d="M2118 323 c-10 -2 -18 -9 -18 -14 0 -13 12 -11 34 6 20 15 16 17 -16
8z"/>
<path d="M2634 321 c4 -5 1 -12 -4 -14 -6 -3 -5 -4 2 -3 15 3 23 26 8 26 -6 0
-9 -4 -6 -9z"/>
<path d="M1662 304 c-19 -21 -15 -24 33 -24 25 0 45 4 45 9 0 5 -10 7 -21 4
-14 -4 -26 0 -33 9 -9 13 -13 13 -24 2z"/>
<path d="M2160 316 c0 -2 7 -6 15 -10 8 -3 15 -1 15 4 0 6 -7 10 -15 10 -8 0
-15 -2 -15 -4z"/>
<path d="M2307 300 c-10 -10 -14 -20 -9 -23 4 -4 16 3 25 13 21 25 8 33 -16
10z"/>
<path d="M2460 310 c-12 -7 -11 -10 5 -16 18 -7 18 -8 -1 -15 -15 -6 -15 -8
-3 -8 21 -1 43 24 34 39 -8 12 -16 13 -35 0z"/>
<path d="M2675 310 c-3 -5 -2 -10 4 -10 5 0 13 5 16 10 3 6 2 10 -4 10 -5 0
-13 -4 -16 -10z"/>
<path d="M2963 303 c9 -9 20 -13 24 -9 4 4 1 11 -7 16 -25 16 -35 11 -17 -7z"/>
<path d="M2543 300 c-13 -5 -23 -14 -23 -20 0 -15 8 -12 32 10 24 22 23 23 -9
10z"/>
<path d="M2917 282 c-21 -22 -21 -32 -4 -32 14 0 47 31 47 43 0 14 -27 7 -43
-11z"/>
<path d="M2217 284 c-4 -4 -7 -14 -7 -23 0 -11 3 -12 11 -4 6 6 10 16 7 23 -2
6 -7 8 -11 4z"/>
<path d="M2617 279 c7 -7 15 -10 18 -7 3 3 -2 9 -12 12 -14 6 -15 5 -6 -5z"/>
<path d="M1793 265 c-9 -25 4 -29 17 -6 7 15 7 21 0 21 -6 0 -13 -7 -17 -15z"/>
<path d="M1988 263 c-16 -4 -34 -33 -20 -33 12 0 48 28 42 32 -3 3 -12 3 -22
1z"/>
<path d="M2858 254 c-26 -13 -38 -34 -20 -34 12 1 57 38 52 43 -3 3 -17 -1
-32 -9z"/>
<path d="M1700 250 c0 -5 4 -10 9 -10 6 0 13 5 16 10 3 6 -1 10 -9 10 -9 0
-16 -4 -16 -10z"/>
<path d="M3110 245 c-8 -9 -8 -15 -2 -15 12 0 26 19 19 26 -2 2 -10 -2 -17
-11z"/>
<path d="M218 243 c7 -3 16 -2 19 1 4 3 -2 6 -13 5 -11 0 -14 -3 -6 -6z"/>
<path d="M2577 229 c5 -19 28 -26 37 -10 3 4 -5 13 -18 19 -21 9 -23 8 -19 -9z"/>
<path d="M1585 230 c-25 -9 -52 -40 -37 -40 6 0 14 5 18 11 3 6 20 17 38 25
33 14 15 19 -19 4z"/>
<path d="M1820 220 c-13 -11 -27 -20 -32 -20 -5 0 -7 -4 -3 -9 3 -6 18 -6 37
0 24 6 38 5 55 -6 12 -8 32 -15 44 -15 19 0 20 -2 8 -17 -13 -15 -12 -15 9 -4
18 10 26 10 38 0 11 -9 18 -9 26 -1 9 9 7 12 -7 12 -11 0 -16 4 -10 8 6 4 16
17 22 29 18 32 -3 39 -23 8 -9 -14 -23 -25 -32 -25 -12 0 -13 3 -4 12 21 21
13 29 -24 25 -24 -3 -37 0 -41 9 -7 20 -36 17 -63 -6z"/>
<path d="M2196 224 c-11 -28 -6 -39 9 -20 8 11 15 23 15 28 0 14 -18 9 -24 -8z"/>
<path d="M2267 204 c-54 -29 -71 -33 -82 -24 -11 9 -18 8 -31 -5 -16 -15 -16
-16 2 -13 27 4 32 -38 6 -46 -10 -4 -31 -19 -45 -35 l-25 -29 21 -6 c20 -6 21
-7 5 -17 -10 -5 -18 -14 -18 -19 0 -13 60 -13 62 0 0 6 1 16 2 22 1 10 59 48
72 48 7 0 -11 -42 -22 -51 -8 -6 -14 -14 -14 -18 0 -11 108 -12 115 -1 3 5 16
10 28 10 30 1 62 22 63 42 1 14 -2 15 -22 6 -13 -6 -27 -8 -32 -3 -4 4 -1 10
6 12 14 5 17 43 3 43 -5 0 -11 -6 -14 -14 -3 -7 -16 -15 -30 -18 -20 -4 -23
-1 -19 14 2 10 9 18 14 18 5 0 7 4 4 9 -4 5 5 8 18 7 14 -2 31 5 40 15 9 11
12 19 8 19 -13 0 -8 36 7 54 11 13 11 16 -2 16 -9 0 -22 -10 -28 -22 -16 -30
-14 -29 -33 -22 -16 6 -16 8 0 25 22 24 21 24 -59 -17z m63 -28 c0 -3 -4 -8
-10 -11 -5 -3 -10 -1 -10 4 0 6 5 11 10 11 6 0 10 -2 10 -4z m-42 -28 c-19
-18 -74 -48 -87 -48 -18 0 -12 30 7 32 32 2 37 4 57 16 26 15 40 15 23 0z
m-93 -68 c-3 -5 -11 -10 -16 -10 -6 0 -7 5 -4 10 3 6 11 10 16 10 6 0 7 -4 4
-10z m55 -57 c-11 -17 -11 -17 -6 0 3 10 6 24 7 30 0 9 2 9 5 0 3 -7 0 -20 -6
-30z m60 7 c0 -5 -4 -10 -10 -10 -5 0 -10 5 -10 10 0 6 5 10 10 10 6 0 10 -4
10 -10z"/>
<path d="M2429 221 c7 -12 9 -27 5 -33 -4 -6 5 -3 19 8 29 21 34 34 13 34 -8
0 -22 3 -31 7 -15 5 -16 3 -6 -16z"/>
<path d="M2745 220 c-10 -11 -14 -20 -9 -20 5 0 17 9 27 20 9 11 13 20 8 20
-4 0 -16 -9 -26 -20z"/>
<path d="M2126 210 c-22 -11 -50 -20 -63 -20 -13 0 -26 -7 -30 -15 -8 -22 4
-30 22 -15 22 18 30 6 9 -14 -11 -12 -20 -14 -28 -7 -9 8 -22 2 -47 -20 l-34
-30 28 6 c16 3 27 1 27 -5 0 -19 61 23 76 53 8 15 21 27 29 27 8 0 29 13 47
30 38 34 22 39 -36 10z"/>
<path d="M505 200 c-3 -5 1 -10 9 -10 9 0 16 5 16 10 0 6 -4 10 -9 10 -6 0
-13 -4 -16 -10z"/>
<path d="M2655 200 c-3 -5 -2 -10 4 -10 5 0 13 5 16 10 3 6 2 10 -4 10 -5 0
-13 -4 -16 -10z"/>
<path d="M451 186 c-1 -10 -9 -25 -18 -32 -10 -7 -15 -15 -11 -19 13 -13 45
31 37 51 -7 18 -8 18 -8 0z"/>
<path d="M2575 190 c3 -5 11 -10 16 -10 6 0 7 5 4 10 -3 6 -11 10 -16 10 -6 0
-7 -4 -4 -10z"/>
<path d="M0 178 c0 -5 7 -8 15 -8 8 0 15 -4 15 -10 0 -18 46 -11 65 9 17 20
16 20 -39 18 -31 -1 -56 -5 -56 -9z"/>
<path d="M2596 134 c-32 -29 -46 -48 -39 -55 6 -6 19 -1 37 16 15 14 33 25 40
25 7 0 21 9 31 20 10 11 21 18 25 15 4 -2 7 2 7 10 0 31 -51 15 -101 -31z"/>
<path d="M1625 160 c-3 -5 -1 -10 4 -10 6 0 11 5 11 10 0 6 -2 10 -4 10 -3 0
-8 -4 -11 -10z"/>
<path d="M1773 155 c-20 -22 -16 -26 12 -13 14 6 25 15 25 20 0 13 -24 9 -37
-7z"/>
<path d="M2425 161 c2 -1 -1 -14 -6 -28 -5 -14 -6 -23 -2 -21 72 35 84 53 34
53 -16 0 -28 -2 -26 -4z"/>
<path d="M2570 160 c13 -8 12 -10 -2 -10 -10 0 -18 -5 -18 -10 0 -7 7 -7 20 0
21 11 19 30 -3 30 -7 0 -6 -4 3 -10z"/>
<path d="M1718 153 c7 -3 16 -2 19 1 4 3 -2 6 -13 5 -11 0 -14 -3 -6 -6z"/>
<path d="M2510 150 c-8 -5 -11 -12 -8 -16 4 -3 14 1 23 10 18 17 9 21 -15 6z"/>
<path d="M294 136 c-10 -8 -15 -18 -11 -22 4 -4 15 0 24 9 22 21 12 31 -13 13z"/>
<path d="M893 133 c-7 -2 -13 -9 -13 -14 0 -15 53 -6 58 9 4 12 -21 15 -45 5z"/>
<path d="M1820 125 c-16 -9 -19 -14 -9 -15 8 0 24 7 35 15 24 18 7 19 -26 0z"/>
<path d="M2103 130 c-12 -5 -27 -19 -34 -32 l-12 -23 25 23 c13 12 29 22 36
22 6 0 14 5 17 10 7 12 -2 12 -32 0z"/>
<path d="M1660 120 c-13 -8 -12 -10 3 -10 9 0 17 5 17 10 0 12 -1 12 -20 0z"/>
<path d="M2497 109 c-15 -11 -25 -24 -22 -29 3 -4 -13 -24 -35 -44 -22 -20
-38 -36 -35 -36 2 0 29 12 60 27 50 25 73 53 43 53 -6 0 -1 8 10 19 40 34 23
43 -21 10z"/>
<path d="M1522 108 c-7 -7 -12 -16 -12 -20 0 -13 48 -28 65 -22 16 7 42 45 28
43 -4 -1 -10 0 -13 1 -23 9 -58 8 -68 -2z"/>
<path d="M0 100 c0 -5 5 -10 10 -10 6 0 10 5 10 10 0 6 -4 10 -10 10 -5 0 -10
-4 -10 -10z"/>
<path d="M1356 101 c-4 -5 -2 -12 3 -15 5 -4 12 -2 15 3 4 5 2 12 -3 15 -5 4
-12 2 -15 -3z"/>
<path d="M1850 94 c-24 -13 -24 -14 -4 -14 12 0 24 7 28 15 3 8 4 15 3 14 -1
-1 -13 -7 -27 -15z"/>
<path d="M67 81 c-53 -20 -86 -44 -46 -34 13 3 30 10 37 16 9 7 17 6 25 -2 9
-9 9 -14 -3 -21 -29 -19 0 -10 37 11 53 29 53 32 8 25 -31 -5 -35 -4 -17 3 21
10 30 22 15 20 -5 0 -30 -9 -56 -18z"/>
<path d="M1248 76 c-16 -13 -28 -26 -28 -30 0 -12 16 -6 37 13 12 11 24 17 27
13 4 -3 4 1 0 11 -8 21 -4 22 -36 -7z"/>
<path d="M1650 75 c-16 -19 -1 -19 24 0 16 12 17 15 4 15 -8 0 -21 -7 -28 -15z"/>
<path d="M1743 78 c-12 -6 -24 -19 -26 -30 -4 -12 -12 -18 -24 -16 -11 2 -18
-3 -18 -12 0 -10 13 -16 42 -18 33 -2 44 1 57 20 19 27 21 68 4 67 -7 0 -23
-5 -35 -11z"/>
<path d="M540 65 c-10 -12 -10 -15 4 -15 9 0 16 7 16 15 0 8 -2 15 -4 15 -2 0
-9 -7 -16 -15z"/>
<path d="M1925 50 c-3 -5 1 -10 9 -10 9 0 16 5 16 10 0 6 -4 10 -9 10 -6 0
-13 -4 -16 -10z"/>
<path d="M2001 48 c-1 -10 -7 -19 -13 -19 -48 -6 -78 -3 -78 7 0 18 -45 5 -58
-17 -10 -15 -9 -19 2 -19 8 0 18 5 21 10 4 6 11 7 17 4 6 -4 41 -7 79 -8 60
-1 66 0 55 14 -7 8 -16 22 -19 30 -4 12 -6 11 -6 -2z"/>
<path d="M916 21 c-10 -15 53 -25 70 -10 20 17 10 23 -16 9 -16 -8 -25 -8 -35
0 -8 7 -15 7 -19 1z"/>
<path d="M1599 14 c-12 -14 -11 -16 5 -13 11 2 21 10 24 17 5 17 -13 15 -29
-4z"/>
<path d="M855 10 c-3 -5 1 -10 9 -10 9 0 16 5 16 10 0 6 -4 10 -9 10 -6 0 -13
-4 -16 -10z"/>
<path d="M4905 10 c-3 -5 -1 -10 4 -10 6 0 11 5 11 10 0 6 -2 10 -4 10 -3 0
-8 -4 -11 -10z"/>
</g>
</svg>
